<svg width="100" height="96" viewBox="0 0 100 96" fill="none" xmlns="http://www.w3.org/2000/svg">
<path fill-rule="evenodd" clip-rule="evenodd" d="M50.1599 0.00740746C57.7779 0.319039 60.9621 10.2263 61.2627 11.3542C61.5678 12.5001 62.1782 15.963 62.3562 17.7197C62.5344 19.4767 63.297 27.2938 63.297 27.2938C63.297 27.2938 67.3669 29.3564 68.7405 30.0691C70.114 30.7822 71.7672 31.7496 71.7672 31.7496L72.0216 29.1017L75.4046 30.2219L75.0737 33.7357C75.0737 33.7357 78.3549 35.9002 80.0333 36.9949C81.7122 38.09 83.4161 39.134 83.4161 39.134L83.8742 36.5623L87.0283 37.5042L86.3667 41.2728C86.3695 41.2763 86.602 41.5577 87.5879 42.3167C88.5795 43.0804 90.8434 44.8374 92.5475 46.2125C94.2519 47.5875 97.1513 50.5662 98.3978 52.6543C99.644 54.7421 100 56.3973 100 57.5177C100 58.6378 99.5677 58.9184 98.4488 59.8855C97.2023 60.8787 94.8887 60.6697 94.099 60.6495C90.0804 60.5475 80.7457 57.263 79.3468 56.8302C77.9478 56.3973 71.7926 54.2331 67.6467 52.5016C63.5008 50.7699 61.5677 50.4391 61.0589 50.2609C60.5504 50.0824 60.7282 50.2609 60.7282 50.7192C60.7281 51.178 59.8381 60.5733 59.7365 61.4895C59.6346 62.4066 58.4137 72.8456 58.2866 73.8644C58.1595 74.8828 57.6762 80.587 57.5489 81.0961C57.4218 81.6052 57.7638 81.5573 58.185 81.7833C61.6439 83.642 63.17 85.246 64.1621 86.4689C65.1539 87.691 65.0521 88.6329 64.4419 89.855C63.7806 91.3065 62.4832 91.2301 61.186 91.2808C59.8891 91.3318 55.2854 90.3134 54.6497 90.0839C54.0136 89.855 54.1725 90.097 54.0645 90.5168C53.1994 93.8782 51.9535 94.9476 51.3683 95.4312C50.9536 95.7742 50.5271 95.9372 50.1599 95.9847V95.9977C50.1085 96.0005 50.0551 96.0007 49.9999 95.9985C49.9448 96.0007 49.8914 96.0005 49.8401 95.9977V95.9847C49.4729 95.9372 49.0464 95.7742 48.6317 95.4312C48.0465 94.9476 46.8006 93.8782 45.9355 90.5168C45.8275 90.097 45.9864 89.855 45.3503 90.0839C44.7146 90.3134 40.1109 91.3318 38.814 91.2808C37.5168 91.2301 36.2194 91.3065 35.5581 89.855C34.9479 88.6329 34.8461 87.691 35.8379 86.4689C36.83 85.246 38.3561 83.642 41.815 81.7833C42.2362 81.5573 42.5782 81.6052 42.4511 81.0961C42.3238 80.587 41.8405 74.8828 41.7134 73.8644C41.5863 72.8456 40.3654 62.4066 40.2635 61.4895C40.1619 60.5733 39.2719 51.178 39.2718 50.7192C39.2718 50.2609 39.4496 50.0824 38.9411 50.2609C38.4323 50.4391 36.4992 50.7699 32.3533 52.5016C28.2074 54.2331 22.0522 56.3973 20.6532 56.8302C19.2543 57.263 9.91959 60.5475 5.90097 60.6495C5.11126 60.6697 2.79771 60.8787 1.5512 59.8855C0.432288 58.9184 0 58.6378 0 57.5177C7.53971e-06 56.3973 0.355976 54.7421 1.60221 52.6543C2.84873 50.5662 5.74815 47.5875 7.45251 46.2125C9.15661 44.8374 11.4205 43.0804 12.4121 42.3167C13.398 41.5577 13.6305 41.2763 13.6333 41.2728L12.9717 37.5042L16.1258 36.5623L16.5839 39.134C16.5839 39.134 18.2878 38.09 19.9667 36.9949C21.6451 35.9002 24.9263 33.7357 24.9263 33.7357L24.5954 30.2219L27.9784 29.1017L28.2328 31.7496C28.2328 31.7496 29.886 30.7822 31.2595 30.0691C32.6331 29.3564 36.703 27.2938 36.703 27.2938C36.703 27.2938 37.4656 19.4767 37.6438 17.7197C37.8218 15.963 38.4322 12.5001 38.7373 11.3542C39.0379 10.2263 42.2221 0.319039 49.8401 0.00740746V0C49.8936 0.000287828 49.9469 0.00102183 49.9999 0.00224469C50.0531 0.00102032 50.1064 0.000288031 50.1599 0V0.00740746ZM50.1599 61.9937V61.9993L49.9999 61.9965L49.8401 61.9993V61.9937L48.6826 61.9739L48.7333 65.1563L49.9999 65.1784L51.2667 65.1563L51.3174 61.9739L50.1599 61.9937ZM48.5301 52.3996V55.3535L49.9999 55.4336L51.4699 55.3535V52.3996L49.9999 52.3883L48.5301 52.3996ZM48.5553 42.826L48.5807 45.8815L49.9999 45.9152L51.4193 45.8815L51.4447 42.826H48.5553ZM50.1599 33.2112V33.2136L49.9999 33.2124L49.8401 33.2136V33.2112L48.4537 33.2011L48.5301 36.3839H51.4699L51.5463 33.2011L50.1599 33.2112ZM48.3267 23.9074L48.4537 27.1156L49.8401 27.0775V27.0689L49.9999 27.0732L50.1599 27.0689V27.0775L51.5463 27.1156L51.6733 23.9074L49.9999 23.8717L48.3267 23.9074Z" fill="#8CACD0"/>
</svg>
