<svg width="312" height="299" viewBox="0 0 312 299" fill="none" xmlns="http://www.w3.org/2000/svg">
<path fill-rule="evenodd" clip-rule="evenodd" d="M156.218 0.0230449C179.943 0.992541 189.86 31.8145 190.796 35.3233C191.746 38.8882 193.647 49.6615 194.202 55.1265C194.757 60.5927 197.132 84.9121 197.132 84.9121C197.132 84.9121 209.807 91.3288 214.085 93.5462C218.363 95.7645 223.511 98.7743 223.511 98.7743L224.304 90.5364L234.84 94.0214L233.809 104.953C233.809 104.953 244.028 111.687 249.255 115.092C254.484 118.5 259.791 121.747 259.791 121.747L261.217 113.747L271.04 116.677L268.98 128.401C268.989 128.412 269.713 129.288 272.783 131.649C275.872 134.025 282.922 139.491 288.229 143.769C293.538 148.047 302.567 157.313 306.45 163.809C310.331 170.305 311.439 175.454 311.44 178.94C311.44 182.424 310.093 183.297 306.608 186.306C302.726 189.396 295.521 188.746 293.062 188.683C280.546 188.366 251.474 178.147 247.117 176.801C242.76 175.454 223.591 168.721 210.679 163.335C197.766 157.947 191.746 156.918 190.162 156.363C188.578 155.808 189.132 156.364 189.132 157.789C189.131 159.217 186.36 188.446 186.043 191.296C185.726 194.149 181.923 226.625 181.527 229.795C181.132 232.963 179.626 250.709 179.23 252.293C178.834 253.877 179.899 253.728 181.211 254.431C191.983 260.213 196.736 265.203 199.826 269.008C202.915 272.81 202.598 275.74 200.698 279.542C198.638 284.058 194.597 283.82 190.558 283.978C186.518 284.137 172.18 280.968 170.201 280.255C168.22 279.542 168.714 280.295 168.378 281.601C165.684 292.059 161.804 295.386 159.981 296.89C158.69 297.957 157.361 298.464 156.218 298.612V298.652C156.058 298.661 155.891 298.662 155.72 298.655C155.548 298.662 155.382 298.661 155.222 298.652V298.612C154.078 298.464 152.75 297.957 151.458 296.89C149.636 295.386 145.755 292.059 143.061 281.601C142.725 280.295 143.22 279.542 141.239 280.255C139.259 280.968 124.921 284.137 120.882 283.978C116.842 283.82 112.801 284.058 110.742 279.542C108.842 275.74 108.524 272.81 111.613 269.008C114.703 265.203 119.456 260.213 130.228 254.431C131.54 253.728 132.605 253.877 132.21 252.293C131.813 250.709 130.308 232.963 129.912 229.795C129.516 226.625 125.714 194.149 125.396 191.296C125.08 188.446 122.308 159.217 122.308 157.789C122.308 156.364 122.862 155.808 121.278 156.363C119.693 156.918 113.673 157.947 100.761 163.335C87.8489 168.721 68.6793 175.454 64.3221 176.801C59.9656 178.147 30.8935 188.366 18.378 188.683C15.9185 188.746 8.71317 189.396 4.83105 186.306C1.34631 183.297 0 182.424 0 178.94C2.34816e-05 175.454 1.10865 170.305 4.98992 163.809C8.87208 157.313 17.902 148.047 23.21 143.769C28.5173 139.491 35.5679 134.025 38.6561 131.649C41.7268 129.288 42.4507 128.412 42.4595 128.401L40.3991 116.677L50.2222 113.747L51.6488 121.747C51.6488 121.747 56.9554 118.5 62.1842 115.092C67.4113 111.687 77.6302 104.953 77.6302 104.953L76.5998 94.0214L87.1359 90.5364L87.9281 98.7743C87.9281 98.7743 93.0767 95.7645 97.3546 93.5462C101.632 91.3288 114.308 84.9121 114.308 84.9121C114.308 84.9121 116.683 60.5927 117.238 55.1265C117.792 49.6615 119.693 38.8882 120.643 35.3233C121.579 31.8145 131.496 0.992541 155.222 0.0230449V0C155.388 0.000895445 155.554 0.00317896 155.72 0.0069833C155.885 0.00317424 156.051 0.000896075 156.218 0V0.0230449ZM156.218 192.865V192.882L155.72 192.874L155.222 192.882V192.865L151.617 192.803L151.775 202.704L155.72 202.772L159.665 202.704L159.823 192.803L156.218 192.865ZM151.142 163.017V172.207L155.72 172.456L160.297 172.207V163.017L155.72 162.982L151.142 163.017ZM151.22 133.233L151.299 142.739L155.72 142.844L160.14 142.739L160.219 133.233H151.22ZM156.218 103.321V103.329L155.72 103.325L155.222 103.329V103.321L150.904 103.29L151.142 113.192H160.297L160.536 103.29L156.218 103.321ZM150.508 74.3767L150.904 84.3576L155.222 84.2392V84.2123L155.72 84.2256L156.218 84.2123V84.2392L160.536 84.3576L160.931 74.3767L155.72 74.2657L150.508 74.3767Z" fill="#8CACD0"/>
</svg>
