<svg width="373" height="244" viewBox="0 0 373 244" fill="none" xmlns="http://www.w3.org/2000/svg">
<path fill-rule="evenodd" clip-rule="evenodd" d="M175.932 18.9432H135.799C134.427 19.5689 131.374 21.2985 130.139 23.2099C129.179 24.6962 125.185 33.5018 122.057 40.5279H140.048C148.557 40.5279 168.487 45.016 180.137 62.968C184.135 69.7057 196.139 83.8661 212.174 86.6069L258.603 69.8199C263.342 69.0776 280.258 67.593 309.999 67.593H361.396V89.0051H284.301C277.392 90.0665 268.356 92.6602 259.285 97.2233L269.015 109.626C272.464 107.084 276.253 104.587 280.416 102.155L280.438 102.143L280.462 102.136C289.209 99.8478 303.706 98.5179 318.791 101.957C333.88 105.397 349.565 113.61 360.665 130.415C371.763 147.216 374.073 165.767 372.456 182.12C370.839 198.472 365.295 212.639 360.671 220.692L360.661 220.71L360.647 220.725C351.754 230.254 324.499 248.007 286.511 242.96C262.747 239.803 249.276 226.962 241.991 214.222C238.35 207.855 236.255 201.513 235.19 196.418C234.657 193.871 234.382 191.633 234.3 189.858C234.218 188.091 234.327 186.761 234.579 186.041C234.69 185.726 234.751 185.251 234.776 184.614C234.801 183.981 234.789 183.204 234.76 182.292C234.728 181.293 234.676 180.133 234.632 178.832L180.137 179.964C177.967 180.421 171.913 179.142 165.061 170.372C158.586 162.085 125.298 114.206 106.808 87.4678L100.639 107.625C110.202 112.341 119.247 119.598 126.392 130.415C137.49 147.216 139.8 165.767 138.183 182.12C136.566 198.472 131.022 212.639 126.398 220.692L126.388 220.71L126.374 220.725C117.481 230.254 90.2259 248.007 52.2383 242.96C28.4739 239.803 15.0024 226.962 7.71772 214.222C4.07685 207.855 1.98154 201.513 0.916438 196.418C0.383915 193.871 0.108436 191.633 0.0265862 189.858C-0.0548696 188.091 0.0543456 186.761 0.306264 186.041C0.416727 185.726 0.478105 185.251 0.502879 184.614C0.527495 183.981 0.51563 183.204 0.486757 182.292C0.429114 180.473 0.304632 178.123 0.278927 175.359C0.227489 169.826 0.57048 162.613 2.6306 154.532C6.75268 138.363 17.7432 118.745 46.1432 102.155L46.1646 102.143L46.1885 102.136C54.2909 100.017 67.3262 98.7198 81.193 101.273L86.3506 85.001H76.0155C69.739 85.001 67.4876 78.3737 67.1464 75.0599C66.5779 64.8331 65.782 42.6654 67.1464 35.8094C68.5109 28.9534 75.3329 28.6106 78.5736 29.2962H98.9806C101.123 20.0389 109.57 4.45507 130.139 2.55996C152.367 0.512036 171.073 0 177.647 0L175.932 18.9432ZM71.3486 132.334C65.5223 131.861 60.2786 132.504 56.7381 133.434L56.7142 133.44L56.6928 133.453C41.0309 142.636 34.9637 153.501 32.6879 162.461C31.5509 166.938 31.3617 170.934 31.3901 173.997C31.4043 175.526 31.4727 176.828 31.5043 177.832C31.5202 178.336 31.5269 178.763 31.5134 179.11C31.4998 179.461 31.466 179.713 31.4094 179.876C31.2652 180.289 31.206 181.038 31.2509 182.017C31.2963 183.003 31.4486 184.244 31.7427 185.656C32.3308 188.48 33.4879 191.995 35.498 195.523C39.5211 202.585 46.9619 209.703 60.0805 211.452C81.0349 214.247 96.0729 204.418 100.986 199.133L101 199.118L101.011 199.1C103.563 194.639 106.62 186.795 107.512 177.742C108.404 168.688 107.13 158.411 101.005 149.103C98.1422 144.753 94.7274 141.442 91.0522 138.955L79.6853 176.099L59.2152 170.616L71.3486 132.334ZM312.163 133.334C303.839 131.429 295.841 132.166 291.011 133.434L290.987 133.44L290.966 133.452C290.209 133.896 289.475 134.343 288.763 134.794L311.689 164.015L312.055 164.033V177.223L265.787 178.185C265.795 178.538 265.797 178.847 265.787 179.11C265.773 179.461 265.739 179.713 265.682 179.876C265.538 180.289 265.479 181.038 265.524 182.016C265.569 183.002 265.722 184.244 266.016 185.656C266.604 188.48 267.761 191.994 269.771 195.523C273.794 202.585 281.235 209.702 294.354 211.452C315.308 214.246 330.346 204.417 335.259 199.133L335.273 199.118L335.284 199.1C337.836 194.639 340.893 186.795 341.785 177.742C342.677 168.687 341.403 158.411 335.278 149.102C329.15 139.791 320.49 135.239 312.163 133.334ZM273.38 148.806C270.163 153.269 268.26 157.691 267.149 161.75L283.988 162.606L273.38 148.806ZM242.396 108.498C229.712 119.64 220.089 136.082 221.083 159.408L235.706 160.152C236.02 158.335 236.413 156.458 236.904 154.532C239.359 144.902 244.25 134.049 253.805 123.34L242.396 108.498Z" fill="#F5D069"/>
</svg>
