<svg width="100" height="89" viewBox="0 0 100 89" fill="none" xmlns="http://www.w3.org/2000/svg">
<path fill-rule="evenodd" clip-rule="evenodd" d="M48.8962 0C48.77 1.38819 48.8436 5.73061 48.8962 7.72852H38.2761L35.069 25.0264H66.194V14.4062H90.5368V25.0264H74.238L78.5368 43.1562C84.4263 43.4856 91.5376 45.7695 96.1423 52.7725C103.129 63.3976 99.0532 76.2393 96.1423 81.332C93.3465 84.3413 84.7632 89.9605 72.7966 88.3633C57.839 86.3666 55.8497 72.1315 56.4548 70.3945C56.6555 69.8188 56.345 67.8589 56.4899 65.1133L32.1247 38.749L30.8522 45.1826C34.1636 46.6529 37.3284 49.0425 39.7809 52.7725C46.7671 63.3975 42.6919 76.2392 39.7809 81.332C36.9852 84.3413 28.4019 89.9605 16.4352 88.3633C1.47689 86.3667 -0.511786 72.1308 0.0934359 70.3945C0.698634 68.6583 -3.36518 54.3346 14.5329 43.8311C16.3286 43.3591 18.8959 43.0191 21.7829 43.1396L29.653 4.78418C29.7583 3.18927 30.9893 0 35.069 0H48.8962ZM19.7038 53.2764C18.9593 53.3473 18.2995 53.4665 17.7634 53.6074C7.802 59.4528 10.0625 67.4237 9.72625 68.3916C9.38936 69.3579 10.4959 77.2812 18.822 78.3926C25.483 79.2816 30.2609 76.1544 31.8171 74.4795C33.4374 71.6449 35.7056 64.4976 31.8171 58.584C30.9508 57.2666 29.924 56.2504 28.819 55.4736L26.0251 69.6113L16.7194 67.8232L19.7038 53.2764ZM84.3854 67.8232L66.0925 68.3682C66.0902 68.3762 66.0901 68.3844 66.0876 68.3916C65.7507 69.3579 66.8581 77.2813 75.1843 78.3926C81.8449 79.2814 86.6221 76.1544 88.1784 74.4795C89.7987 71.645 92.0671 64.4977 88.1784 58.584C86.2769 55.6923 83.6072 54.2479 81.0173 53.6191L84.3854 67.8232ZM72.6257 54.5664C70.5061 56.041 69.0651 57.6117 68.0895 59.1484H73.9225L72.6257 54.5664ZM59.196 55.2471C61.12 51.6701 64.3594 47.9144 69.779 44.5107L66.8249 34.0693H40.905L59.196 55.2471Z" fill="#F5D069"/>
</svg>
