<svg width="375" height="185" viewBox="0 0 375 185" fill="none" xmlns="http://www.w3.org/2000/svg">
<path fill-rule="evenodd" clip-rule="evenodd" d="M85.1666 0.0767611L84.3195 10.1249C84.3083 10.1256 83.1514 10.2017 81.0019 10.2017C78.8418 10.2017 53.6772 11.0348 51.6094 11.2839C41.9669 12.4437 33.7127 15.9985 29.1608 18.5492C24.609 21.0998 20.0572 25.1191 18.9782 27.1277C17.8982 29.1373 15.2746 34.1609 13.9628 36.7116C12.651 39.2623 9.87555 51.0884 9.33442 55.8021C8.79441 60.5169 8.10028 76.5926 8.10026 80.0712C8.10026 83.5483 8.10019 100.862 8.02256 105.19C7.94606 109.517 7.86849 125.981 7.79199 129.15C7.71436 132.318 7.32941 138.271 7.32941 138.271L0.695315 138.811L0 162.386C0.0107075 162.386 26.6166 163.698 29.7784 163.853C32.9415 164.008 69.4282 165.322 71.8991 165.553C74.3674 165.784 73.6712 166.137 74.444 168.028C80.4618 182.711 97.9724 184.461 100.365 184.49C119.959 184.721 125.667 173.591 127.289 171.119C128.905 168.648 130.523 165.181 130.529 165.168C130.574 165.167 148.048 165.012 153.44 165.012C158.842 165.012 176.04 165.862 180.592 165.631C181.307 165.594 182.929 165.572 185.17 165.558C187.412 165.572 189.034 165.594 189.748 165.631C194.3 165.862 215.866 165.012 221.267 165.012C226.666 165.012 244.179 165.168 244.179 165.168C244.19 165.192 245.805 168.653 247.418 171.119C249.04 173.591 254.748 184.721 274.343 184.49C276.734 184.462 294.245 182.711 300.263 168.028C301.036 166.137 300.34 165.784 302.808 165.553C305.278 165.322 341.767 164.008 344.929 163.853C348.088 163.698 374.643 162.389 374.707 162.386L374.012 138.811L367.378 138.271C367.378 138.271 366.993 132.318 366.915 129.15C366.839 125.981 366.761 109.517 366.685 105.19C366.607 100.862 366.607 83.5483 366.607 80.0712C366.607 76.5926 365.913 60.5169 365.373 55.8021C364.832 51.0884 362.057 39.2623 360.745 36.7116C359.433 34.1609 356.809 29.1373 355.729 27.1277C354.65 25.1191 350.099 21.0998 345.547 18.5492C340.995 15.9985 332.74 12.4437 323.098 11.2839C321.029 11.0348 295.865 10.2017 293.705 10.2017C291.545 10.2017 290.388 10.1249 290.388 10.1249L289.541 9.73857L227.978 9.66181L227.669 9.73857C227.669 9.73857 192.078 10.0539 178.092 10.1638C174.011 10.1747 187.873 10.1838 185.17 10.1905C182.468 10.1838 178.861 10.1747 174.779 10.1638C160.794 10.0539 147.038 9.73857 147.038 9.73857L146.729 0L85.1666 0.0767611ZM344.621 115.315C349.789 115.933 351.41 118.793 351.487 122.195C351.41 128.145 347.398 128.84 344.081 128.84C339.143 128.84 337.91 123.895 337.831 121.809C337.755 119.722 338.449 119.026 339.915 117.558C341.382 116.088 343.387 115.238 344.621 115.315ZM30.0867 115.315C31.3208 115.238 33.3254 116.088 34.7924 117.558C36.2583 119.026 36.9527 119.722 36.8762 121.809C36.7974 123.895 35.5643 128.84 30.6266 128.84C27.3089 128.84 23.2972 128.145 23.2206 122.195C23.2971 118.793 24.9183 115.933 30.0867 115.315ZM283.754 50.4695C283.754 52.8658 284.524 60.9801 284.524 64.4584C284.524 67.9371 284.989 101.868 284.989 105.424C284.989 108.97 285.141 116.897 285.142 116.938L268.325 117.016C268.324 116.959 267.861 91.8925 267.785 88.3412C267.707 84.7863 266.783 68.4 266.705 62.9131C266.627 57.4348 266.397 43.48 266.397 43.4363L283.754 43.3585V50.4695ZM108.311 43.4363C108.31 43.4791 108.08 57.4347 108.003 62.9131C107.925 68.4 107 84.7863 106.922 88.3412C106.846 91.8925 106.384 116.96 106.382 117.016L89.5654 116.938C89.5662 116.897 89.7187 108.97 89.7187 105.424C89.7187 101.868 90.183 67.9371 90.1831 64.4584C90.1831 60.9801 90.9539 52.8658 90.9539 50.4695V43.3585L108.311 43.4363ZM309.906 42.5087C309.905 42.5703 309.52 68.0196 309.598 72.4192C309.674 76.8251 309.444 97.5386 309.444 100.089C309.444 102.641 309.52 115.933 309.52 115.933L293.243 116.938C293.241 116.877 292.78 99.3855 292.934 94.7578C293.088 90.1184 292.394 61.2131 292.317 58.044C292.24 54.8745 292.086 42.9718 292.086 42.9718L309.906 42.5087ZM82.622 42.9718C82.622 42.9718 82.4676 54.8745 82.39 58.044C82.3135 61.2132 81.6193 90.1184 81.7734 94.7578C81.9273 99.3856 81.4657 116.878 81.4641 116.938L65.1873 115.933C65.1873 115.933 65.2639 102.641 65.2639 100.089C65.2639 97.5386 65.0331 76.8251 65.1096 72.4192C65.1872 68.0196 64.8023 42.5699 64.8014 42.5087L82.622 42.9718ZM212.375 86.6413L185.528 86.1771L185.837 64.4584L211.911 64.3038L212.375 86.6413ZM162.667 64.4584L162.976 86.1771L136.129 86.6413L136.593 64.3038L162.667 64.4584ZM341.072 43.2039C341.072 43.2039 341.458 59.0492 341.458 60.98C341.458 62.9131 340.995 85.4816 340.995 85.4816L330.349 85.4037C330.348 85.3661 329.809 66.0018 329.963 62.3722C330.118 58.7423 330.426 43.3824 330.426 43.3585L341.072 43.2039ZM44.2811 43.3585C44.2816 43.3845 44.5893 58.7425 44.7444 62.3722C44.8984 66.0018 44.3595 85.3672 44.3584 85.4037L33.7125 85.4816C33.7125 85.4816 33.2489 62.9131 33.2489 60.98C33.2489 59.0492 33.6348 43.2039 33.6348 43.2039L44.2811 43.3585ZM212.143 43.2039L211.448 53.8701L185.22 53.7922L184.834 42.8175L212.143 43.2039ZM163.284 53.7922L137.055 53.8701L136.362 43.2039L163.67 42.8175L163.284 53.7922Z" fill="#F5D069"/>
</svg>
