<svg width="313" height="336" viewBox="0 0 313 336" fill="none" xmlns="http://www.w3.org/2000/svg">
<path d="M175.018 53.6855C181.216 53.6855 193.503 55.9023 193.074 64.7694C192.645 73.6365 180.858 77.641 175.018 78.5349L136.046 75.8533C131.994 75.7341 123.782 73.3505 123.353 64.7694C122.924 56.1883 131.636 53.8047 136.046 53.6855H175.018Z" fill="#DCB0D9"/>
<path fill-rule="evenodd" clip-rule="evenodd" d="M71.8665 0.947612C107.049 -0.768605 205.946 0.232522 250.997 0.947612C264.464 4.82102 291.399 18.1098 291.399 40.2776V127.519H312.316V156.837H291.399L294.02 273.218H294.081V309.509C292.71 318.209 282.067 335.61 250.46 335.61C218.853 335.61 209.998 313.561 209.521 302.537V280.494L155.89 283.408H105.833V309.509C104.463 318.209 93.8198 335.61 62.2128 335.61C30.6059 335.61 21.7507 313.561 21.2739 302.537V156.837H0V127.519H21.2739V43.4955C23.4788 30.0279 36.6841 2.66383 71.8665 0.947612ZM140.873 244.078V262.671H180.203V244.078H140.873ZM93.1094 206.514C89.4197 205.67 85.8741 205.996 83.7294 206.559L83.7053 206.565L83.6844 206.578C76.7512 210.643 74.0572 215.459 73.0464 219.439C72.5419 221.425 72.458 223.198 72.4706 224.554C72.4769 225.23 72.5073 225.809 72.5212 226.249C72.5282 226.471 72.5309 226.656 72.5251 226.806C72.5191 226.959 72.5047 227.058 72.4849 227.115C72.4146 227.316 72.3896 227.664 72.4095 228.097C72.4298 228.538 72.4978 229.091 72.6284 229.718C72.8898 230.973 73.4037 232.534 74.2964 234.101C76.0845 237.24 79.3926 240.403 85.2162 241.179C94.4982 242.417 101.164 238.065 103.351 235.713L103.365 235.698L103.375 235.68C104.508 233.7 105.861 230.225 106.256 226.216C106.651 222.205 106.088 217.646 103.369 213.514C100.649 209.38 96.8031 207.359 93.1094 206.514ZM230.049 206.514C226.359 205.67 222.814 205.996 220.669 206.559L220.645 206.565L220.624 206.578C213.691 210.643 210.997 215.459 209.986 219.439C209.482 221.425 209.398 223.198 209.41 224.554C209.417 225.23 209.447 225.809 209.461 226.249C209.468 226.471 209.471 226.656 209.465 226.806C209.459 226.959 209.444 227.058 209.425 227.115C209.354 227.316 209.329 227.664 209.349 228.097C209.37 228.538 209.438 229.091 209.568 229.718C209.83 230.973 210.343 232.534 211.236 234.101C213.024 237.24 216.332 240.403 222.156 241.179C231.438 242.417 238.104 238.065 240.29 235.713L240.304 235.698L240.315 235.68C241.447 233.7 242.801 230.225 243.196 226.216C243.591 222.205 243.028 217.646 240.309 213.514C237.588 209.38 233.743 207.359 230.049 206.514ZM92.6042 25.4394C52.2731 25.4395 45.6466 53.0896 47.3747 66.9147L44.6931 172.748H267.98V63.6968C267.98 35.2362 241.402 26.3333 228.114 25.4394H92.6042Z" fill="#DCB0D9"/>
</svg>
