<svg width="316" height="220" viewBox="0 0 316 220" fill="none" xmlns="http://www.w3.org/2000/svg">
<path d="M64.5233 154.345C72.5516 152.241 91.1554 151.896 101.344 167.352C111.533 182.808 105.59 201.489 101.344 208.897C97.2669 213.274 84.7495 221.448 67.2976 219.125C45.4826 216.221 42.5821 195.512 43.4648 192.986C44.3475 190.46 38.4209 169.625 64.5233 154.345Z" fill="#8CACD0"/>
<path d="M221.299 148.126C229.327 146.022 247.931 145.677 258.12 161.133C268.308 176.589 262.365 195.269 258.12 202.678C254.042 207.055 241.525 215.229 224.073 212.906C202.258 210.002 199.357 189.293 200.24 186.767C201.123 184.241 195.196 163.406 221.299 148.126Z" fill="#8CACD0"/>
<path fill-rule="evenodd" clip-rule="evenodd" d="M37.5054 0C99.7498 0.57008 231.1 1.71024 258.543 1.71024C285.986 1.71028 296.262 16.325 297.97 23.6324V118.784H315.355V144.437H297.97V170.247L268.322 172.268V170.247C268.167 151.123 255.438 137.286 226.878 137.286C204.029 137.286 195.212 159.26 193.66 170.247H110.15C107.356 159.674 100.06 142.572 72.2753 143.816C50.0474 144.811 40.972 163.302 39.2128 172.423H13.2905L11.4279 142.572H2.58015C-0.648463 135.482 -1.06533 126.402 2.58015 120.494H11.4279V102.925L39.2128 94.996L64.5142 58.77L37.5054 57.8372V0ZM157.186 125.158H201.269L199.096 33.4274H157.186V125.158ZM105.502 32.961C104.549 32.961 103.681 33.5067 103.266 34.3654L84.8687 72.4571C84.0711 74.109 85.2726 76.0279 87.1046 76.0279H128.004C129.375 76.0278 130.487 74.9141 130.487 73.5403V35.4486C130.487 34.0748 129.375 32.9611 128.004 32.961H105.502ZM225.95 73.8512H264.445V33.4274H225.95V73.8512Z" fill="#8CACD0"/>
</svg>
