<svg width="346" height="295" viewBox="0 0 346 295" fill="none" xmlns="http://www.w3.org/2000/svg">
<path d="M68.4859 294.501C69.8493 294.545 69.736 294.558 67.2045 294.615C66.6753 294.627 67.3346 294.577 68.4859 294.501Z" fill="#EA8F5E"/>
<path fill-rule="evenodd" clip-rule="evenodd" d="M200.415 0.00552971C229.479 -0.19338 246.667 5.02659 253.371 7.16621C277.653 14.9237 281.239 29.0515 287.011 40.9835C292.786 52.9207 305.523 100.463 307.116 107.627C308.711 114.79 310.648 115.259 315.678 116.779C326.228 119.962 330.209 124.932 335.583 133.886C340.96 142.837 341.356 150.597 343.55 161.736C345.737 172.875 346.335 190.183 345.143 208.085C343.946 225.987 339.169 229.968 332.401 237.924C325.631 245.883 311.102 249.063 307.116 250.458C303.137 251.85 304.733 250.854 304.531 261.001C304.329 271.145 301.943 287.458 300.55 290.044C300.07 290.934 299.685 291.8 299.386 292.552H254.3C254.194 292.262 254.082 291.957 253.966 291.635C251.376 284.475 252.175 276.518 252.175 271.341C252.175 266.182 251.58 252 251.578 251.948C251.523 251.948 216.526 252.05 199.818 252.248C183.098 252.447 149.452 251.052 138.902 251.052C128.365 251.052 90.2418 250.259 90.1296 250.257C90.1296 250.257 89.3328 258.614 89.5319 265.576C89.7309 272.537 90.7916 284.25 88.602 288.427C88.1379 292.111 86.1617 291.99 85.147 292.552L75.2754 294.052C77.6859 293.939 71.4525 294.304 68.4859 294.501C65.1309 294.392 52.8329 294.103 45.6195 292.552C44.1179 291.24 44.1177 290.114 44.1177 288.427C43.5455 285.239 42.7499 258.813 43.3495 252.05C43.9441 245.287 38.1713 246.676 24.0386 243.295C9.90341 239.914 3.33421 213.658 1.34358 201.519C-0.646894 189.388 0.167495 164.525 0.152234 160.543C-0.0519213 116.78 33.5921 108.224 38.3701 106.036C43.1473 103.848 42.3155 97.294 42.5527 93.3056C44.5433 59.4855 52.904 39.7905 58.0794 30.842C63.2548 21.8885 64.0508 20.6946 71.0202 14.9236C77.9895 9.15787 84.5559 6.96745 92.5179 6.17178C100.48 5.37614 121.187 3.5859 134.125 2.59389C147.063 1.59679 191.258 0.0693138 200.415 0.00552971ZM65.2478 160.543C61.8766 160.035 40.9581 162.93 40.9581 179.439C41.5579 191.379 45.5388 201.722 60.6667 203.712C68.0343 203.712 82.9634 199.333 84.7549 182.226C84.7549 173.472 79.776 162.731 65.2478 160.543ZM291.391 157.556C286.417 157.556 268.699 160.344 267.9 176.06C267.701 184.812 269.296 198.736 287.611 200.128C297.96 199.134 310.698 193.763 310.699 178.246C309.706 169.693 307.116 160.343 291.391 157.556ZM106.852 165.516L104.262 196.548L118.795 196.943L119.791 164.719L106.852 165.516ZM204.795 162.929L203.802 196.148L217.735 196.548L218.93 162.73L204.795 162.929ZM165.183 196.148L182.899 196.349L183.098 161.736H168.166L165.183 196.148ZM133.924 195.355L148.858 195.753L149.654 162.532L135.917 161.935L133.924 195.355ZM233.464 195.753L246.004 195.156V162.134L233.265 161.935L233.464 195.753ZM242.62 36.2122C238.26 35.5489 208.775 28.8502 168.564 29.2505C166.533 29.2658 132.335 31.635 125.765 32.4332C119.194 33.2263 117.004 31.8343 99.6838 37.8016C85.6229 42.6493 81.5676 44.3679 79.1816 51.1306C76.7929 57.8936 72.6127 76.3952 72.8117 92.507C72.0155 103.848 70.6222 105.837 77.191 105.837C83.7605 105.837 165.378 107.627 169.36 107.229C173.341 106.834 173.939 102.256 176.925 97.0846C179.913 91.9103 186.877 80.1749 207.581 80.1749C211.366 80.1748 233.264 77.3928 243.612 102.256C244.393 104.128 243.217 105.837 246.004 105.837C248.793 105.837 269.69 106.433 271.883 106.433C274.073 106.433 274.867 107.627 273.474 101.858C272.083 96.0897 265.713 57.6972 263.322 51.1306C260.936 44.5666 255.757 38.1988 242.62 36.2122ZM209.97 91.9107C191.681 92.2544 191.855 105.588 191.856 105.638L228.286 106.433C228.293 106.351 229.42 92.9048 209.97 91.9107Z" fill="#EA8F5E"/>
</svg>
