<svg width="370" height="220" viewBox="0 0 370 220" fill="none" xmlns="http://www.w3.org/2000/svg">
<path d="M88.7351 162.298C92.2908 162.605 97.8505 164.029 102.998 167.302C108.148 170.578 112.892 175.711 114.792 183.434C116.691 191.153 115.091 198.357 112.326 204.219C109.563 210.079 105.631 214.61 102.846 216.993L102.83 217.007L102.812 217.016C98.2358 219.388 85.7649 222.378 72.3316 215.48C63.9161 211.159 60.6057 204.593 59.585 198.884C59.0752 196.032 59.1363 193.395 59.4157 191.357C59.5553 190.338 59.75 189.467 59.9558 188.792C60.1593 188.125 60.3801 187.629 60.5822 187.378C60.654 187.289 60.7348 187.134 60.8273 186.903C60.9185 186.675 61.0157 186.388 61.1252 186.047C61.343 185.368 61.6082 184.478 61.9639 183.449C62.6768 181.387 63.7598 178.75 65.5959 176.017C69.272 170.545 75.9549 164.709 88.6865 162.301L88.7106 162.296L88.7351 162.298Z" fill="#8CACD0"/>
<path d="M279.553 161.882C282.451 161.895 285.034 162.431 286.988 163.074C287.965 163.395 288.787 163.743 289.413 164.068C290.033 164.388 290.481 164.695 290.691 164.939C290.766 165.026 290.904 165.133 291.114 165.266C291.321 165.396 291.586 165.544 291.902 165.713C292.53 166.05 293.358 166.471 294.306 167.007C296.205 168.08 298.604 169.621 300.961 171.92C305.679 176.524 310.214 184.15 310.284 197.107L310.285 197.132L310.279 197.155C309.335 200.597 306.931 205.809 302.783 210.281C298.631 214.756 292.726 218.495 284.788 218.97C276.853 219.445 270.056 216.572 264.789 212.795C259.523 209.019 255.777 204.334 253.935 201.164L253.924 201.147L253.918 201.127C252.411 196.198 251.721 183.392 260.93 171.424C266.698 163.927 273.754 161.856 279.553 161.882Z" fill="#8CACD0"/>
<path fill-rule="evenodd" clip-rule="evenodd" d="M188.56 0.00307615H260.248C330.899 0.289112 353.21 60.5474 355.534 90.6407V141.409H369.836V162.686H355.534V175.021H315.489C314.416 168.228 305.942 154.105 280.628 151.96C255.314 149.814 245.648 166.44 243.98 175.021H124.739C124.739 167.334 117.516 151.96 88.6265 151.96C59.7368 151.96 51.561 167.334 51.0842 175.021H9.78779V159.823H3.35198C-1.11734 152.314 -1.11731 127.286 3.35198 123.532H9.87194C11.4859 99.3639 36.1972 85.8632 48.7602 82.0597H76.6487C91.4272 66.3873 124.309 31.5028 137.61 17.344C150.911 3.18523 177.119 -0.116103 188.56 0.00307615ZM277.231 20.5333C263.359 18.9601 242.609 19.5202 233.969 20.1757V73.6287L329.969 74.0097L306.729 32.8686C302.677 29.4123 291.104 22.1065 277.231 20.5333ZM212.337 19.85C208.464 19.4328 194.46 19.85 180.158 19.85C165.856 19.85 156.5 26.5241 152.269 29.8612L130.996 52.9229L115.264 73.1242H212.337V19.85Z" fill="#8CACD0"/>
</svg>
