<svg width="335" height="211" viewBox="0 0 335 211" fill="none" xmlns="http://www.w3.org/2000/svg">
<path fill-rule="evenodd" clip-rule="evenodd" d="M184.945 17.439H105.351V33.2419C147.708 36.9621 165.902 60.7221 169.762 72.735L169.778 73.2437H218.807C218.91 72.7962 219.018 72.3452 219.133 71.8911C222.635 58.0778 231.97 41.3208 256.085 27.1523L256.108 27.139L256.134 27.1322C263.564 25.1771 275.876 24.0411 288.687 26.9786C301.502 29.9171 314.826 36.9343 324.255 51.2906C333.681 65.6433 335.642 81.4896 334.268 95.4568C332.895 109.422 328.188 121.522 324.261 128.401L324.25 128.421L324.235 128.437C316.679 136.579 293.532 151.743 261.274 147.432C241.088 144.734 229.643 133.763 223.455 122.878C222.504 121.205 221.677 119.534 220.962 117.896L163.495 137.91C151.017 162.136 143.913 170.249 120.457 173.12V190.394L163.837 190.86V210.236L1.54969 206.749V189.116L51.5139 189.653V173.559C-5.91019 164.862 -10.2044 113.991 13.6716 70.6036C32.1368 37.0492 68.3116 30.7084 90.0522 31.9139V17.439H10.458V0H184.945V17.439ZM106.513 174.205C96.9706 174.643 85.3677 174.74 70.9949 174.85C69.1071 174.864 67.2614 174.842 65.4574 174.786V189.802L106.513 190.244V174.205ZM77.2706 120.91V129.048H99.7352V120.91H77.2706ZM284.076 48.1339C275.845 46.2377 267.935 46.9707 263.159 48.2334L263.133 48.2402L263.11 48.2539C249.815 56.1026 243.512 65.1854 240.57 73.2437H287.972V94.558L242.376 110.438C246.405 117.34 253.73 124.201 266.465 125.911C287.185 128.693 302.055 118.908 306.915 113.645L306.931 113.629L306.942 113.61C309.466 109.168 312.488 101.359 313.37 92.3471C314.252 83.3332 312.993 73.1022 306.935 63.8343C300.875 54.5629 292.311 50.0312 284.076 48.1339ZM96.6563 46.5236C31.122 45.4385 16.0293 89.2168 16.6748 111.242H96.6563V46.5236Z" fill="#DCB0D9"/>
</svg>
