<svg width="206" height="354" viewBox="0 0 206 354" fill="none" xmlns="http://www.w3.org/2000/svg">
<path d="M102.874 0.000976562C100.85 0.0273409 99.5077 0.0843448 99.0878 0.0761719C61.1201 -0.730334 36.1836 21.386 33.7929 23.0498C16.3007 35.2214 8.2723 55.4932 7.43355 57.793C-2.804 85.8437 0.478434 106.538 0.581006 108.657C1.3068 123.651 8.80683 140.82 9.85151 143.078C20.8147 166.777 37.9034 177.578 41.9345 180.482C45.9516 183.374 52.5307 187.388 52.5751 187.415C52.5751 187.415 53.3808 199.991 53.622 203.778C53.8654 207.567 54.8326 231.106 54.7519 232.637C54.6711 234.17 54.4292 233.846 53.5419 234.41C52.6557 234.974 51.6881 235.297 51.6083 238.199C51.5279 241.102 54.0273 242.554 54.0273 242.554L54.6708 273.265L34.1162 274.556C34.1359 274.631 38.7132 292.057 39.7578 296.642C40.8066 301.238 42.6663 310.989 43.7089 315.425C48.1424 334.288 58.7358 339.999 60.6357 341.221C79.8219 353.553 99.4898 353.247 101.99 353.231C102.301 353.228 102.606 353.219 102.915 353.213C103.224 353.219 103.529 353.228 103.84 353.231C106.341 353.247 126.009 353.553 145.194 341.221C147.094 339.999 157.688 334.287 162.121 315.425C163.164 310.989 165.023 301.238 166.072 296.642C167.117 292.055 171.698 274.616 171.714 274.556L151.159 273.265L151.803 242.554C151.803 242.554 154.302 241.102 154.222 238.199C154.142 235.297 153.173 234.974 152.287 234.41C151.4 233.846 151.159 234.17 151.078 232.637C150.997 231.106 151.965 207.567 152.208 203.778C152.449 199.991 153.254 187.415 153.254 187.415C153.254 187.415 159.864 183.383 163.894 180.482C167.925 177.578 185.015 166.777 195.978 143.078C197.023 140.82 204.522 123.651 205.248 108.657C205.351 106.539 208.634 85.8438 198.396 57.793C197.558 55.4934 189.529 35.2216 172.037 23.0498C169.646 21.386 144.71 -0.730187 106.742 0.0761719C106.322 0.0843443 104.98 0.0273429 102.956 0.000976562V0H102.874V0.000976562ZM113.675 293.256C118.511 290.274 122.702 292.611 124.314 293.337C125.927 294.063 125.928 294.143 124.558 295.272C123.187 296.401 119.88 301.963 118.914 304.221C117.946 306.475 117.462 304.622 116.817 302.525C116.172 299.382 114.402 296.4 113.19 295.11C111.982 293.82 112.502 293.979 113.675 293.256ZM81.5146 293.337C83.1266 292.611 87.3181 290.273 92.1552 293.256C93.3283 293.979 93.8478 293.82 92.6396 295.11C91.4283 296.4 89.6568 299.382 89.0117 302.525C88.3666 304.622 87.8831 306.476 86.915 304.221C85.949 301.963 82.6433 296.401 81.2724 295.272C79.9016 294.143 79.9016 294.063 81.5146 293.337ZM140.114 293.096C144.871 290.273 149.385 292.531 150.997 293.176C152.61 293.821 152.448 293.337 151.48 294.546C150.512 295.755 146.806 300.35 145.678 302.769C144.549 305.187 143.824 304.542 143.662 303.012C143.501 301.477 140.356 296.076 139.309 294.786C138.26 293.499 139.21 293.631 140.114 293.096ZM54.832 293.176C56.444 292.531 60.9584 290.274 65.7148 293.096C66.6186 293.631 67.5691 293.498 66.5205 294.786C65.4727 296.076 62.3294 301.477 62.1679 303.012C62.0063 304.542 61.2806 305.186 60.1523 302.769C59.0238 300.35 55.3167 295.755 54.3486 294.546C53.3809 293.337 53.2196 293.82 54.832 293.176ZM142.292 246.823C143.985 245.939 143.662 245.939 143.662 247.067C143.662 248.194 143.581 269.154 143.662 271.653C143.743 274.153 143.5 273.749 140.68 274.231C137.858 274.717 123.026 274.555 121.01 274.635C118.995 274.716 119.157 273.507 118.109 270.605C117.061 267.701 116.173 262.786 115.933 258.514C115.689 254.241 116.047 254.554 118.109 254.08C132.779 250.694 140.598 247.713 142.292 246.823ZM62.1679 247.067C62.1679 245.939 61.8453 245.939 63.538 246.823C65.2323 247.713 73.0512 250.695 87.7207 254.08C89.7831 254.554 90.1407 254.241 89.8974 258.514C89.6572 262.786 88.7695 267.701 87.7207 270.605C86.6729 273.508 86.8341 274.717 84.8193 274.635C82.8021 274.555 67.9706 274.717 65.1494 274.231C62.3294 273.749 62.0872 274.153 62.1679 271.653C62.2487 269.154 62.1679 248.194 62.1679 247.067ZM60.9589 190.641C60.7985 188.786 61.524 189.51 62.6513 189.913C63.7799 190.317 83.6913 195.96 100.217 196.281C100.466 196.286 101.432 196.258 102.915 196.185C104.398 196.258 105.364 196.286 105.613 196.281C122.137 195.96 142.046 190.318 143.178 189.913C144.305 189.51 145.032 188.786 144.871 190.641C144.709 192.497 143.259 231.828 143.34 234.17C143.42 236.506 142.695 236.346 141.809 236.911C139.47 239.329 131.086 242.794 127.298 243.6C123.51 244.407 114.884 244.81 112.627 244.81C110.37 244.81 110.933 244.085 111.821 243.036C112.707 241.987 112.465 242.391 112.787 240.698C113.11 239.004 114.964 235.862 116.98 234.087C118.995 232.316 117.946 232.396 116.576 230.863C115.206 229.332 114.561 227.8 112.224 224.416C109.272 220.375 106.545 220.224 102.956 220.005V220C102.942 220.001 102.929 220.001 102.915 220.002C102.901 220.001 102.888 220.001 102.874 220V220.005C99.2846 220.225 96.5576 220.375 93.6054 224.416C91.2677 227.801 90.6226 229.332 89.2529 230.863C87.8832 232.395 86.8348 232.315 88.8496 234.087C90.8664 235.862 92.7199 239.004 93.0429 240.698C93.3649 242.391 93.1225 241.987 94.0087 243.036C94.8969 244.085 95.4598 244.81 93.2031 244.81C90.9461 244.81 82.3208 244.407 78.5322 243.6C74.7439 242.794 66.3607 239.329 64.0214 236.911C63.1352 236.346 62.4105 236.506 62.4902 234.17C62.5708 231.828 61.1206 192.497 60.9589 190.641ZM110.933 8.53906C108.918 6.28197 110.876 7.12025 112.144 7.41016C146.242 15.2304 160.586 45.0159 161.961 47.7969C172.037 68.1903 171.766 87.1342 171.714 90.6006C171.391 112.043 163.2 130.402 161.638 134.292C154.383 152.347 143.017 165.084 134.634 172.662C126.25 180.241 117.06 185.882 113.997 187.577C110.933 189.268 111.08 187.831 111.74 186.366C123.671 159.845 128.971 127.839 129.556 124.859C133.263 105.916 133.426 88.909 133.345 87.5381C131.329 53.923 125.362 38.6068 123.589 33.5283C118.672 17.0838 112.949 10.7972 110.933 8.53906ZM93.6865 7.41016C94.9538 7.12025 96.9112 6.28198 94.8964 8.53906C92.8793 10.7975 87.1569 17.0845 82.2402 33.5283C80.4665 38.6069 74.5011 53.9233 72.4853 87.5381C72.4035 88.9088 72.5659 105.916 76.2734 124.859C76.8584 127.839 82.1584 159.845 94.0888 186.366C94.7494 187.831 94.8966 189.269 91.832 187.577C88.7694 185.882 79.5796 180.241 71.1962 172.662C62.813 165.084 51.4471 152.347 44.1923 134.292C42.63 130.402 34.4392 112.043 34.1162 90.6006C34.0644 87.1342 33.793 68.1903 43.8691 47.7969C45.2441 45.0159 59.5878 15.2302 93.6865 7.41016Z" fill="#DCB0D9"/>
</svg>
