<svg width="358" height="251" viewBox="0 0 358 251" fill="none" xmlns="http://www.w3.org/2000/svg">
<path fill-rule="evenodd" clip-rule="evenodd" d="M105.283 0C106.204 6.77514e-05 106.885 0.857986 106.676 1.7549L82.0932 107.246L136.696 192.238C136.959 192.648 137.413 192.896 137.9 192.896H215.111C221.933 152.591 242.824 129.032 296.226 130.861C347.396 132.615 358.618 185.864 357.724 212.739H342.171L342.138 212.47C339.685 192.12 334.821 151.769 289.969 148.381C255.945 145.811 239.22 172.95 233.945 192.896H245.785C245.829 192.712 245.874 192.528 245.921 192.344C248.615 181.771 255.796 168.95 274.34 158.11L274.361 158.098L274.385 158.091C280.101 156.595 289.569 155.726 299.422 157.974C309.279 160.222 319.528 165.592 326.781 176.579C334.032 187.563 335.539 199.69 334.483 210.376C333.427 221.061 329.808 230.319 326.787 235.583L326.777 235.601L326.763 235.616C320.949 241.85 303.147 253.45 278.34 250.152C262.813 248.088 254.008 239.691 249.247 231.36C246.868 227.196 245.498 223.049 244.802 219.718C244.454 218.052 244.274 216.588 244.221 215.425C244.201 214.997 244.198 214.607 244.211 214.261L125.251 216.833C124.74 216.844 124.262 216.582 123.997 216.145L75.384 136.039L68.9953 163.454C74.0295 166.494 78.7262 170.745 82.5779 176.579C89.8285 187.563 91.3362 199.69 90.2801 210.376C89.2241 221.061 85.6044 230.319 82.5834 235.583L82.5733 235.601L82.5593 235.616C76.7455 241.85 58.9439 253.45 34.1364 250.152C18.6098 248.088 9.80472 239.691 5.04366 231.36C2.6646 227.196 1.29522 223.049 0.599135 219.718C0.251147 218.052 0.0710101 216.588 0.0174262 215.425C-0.0357573 214.271 0.0346559 213.391 0.203182 212.91C0.272008 212.713 0.312057 212.411 0.328183 211.996C0.344147 211.585 0.336531 211.079 0.317708 210.485C0.280153 209.299 0.198666 207.762 0.181883 205.956C0.148299 202.341 0.372361 197.626 1.71821 192.344C4.41177 181.771 11.5931 168.95 30.1368 158.11L30.1581 158.098L30.1818 158.091C34.8972 156.857 42.167 156.049 50.0996 157.067L76.1703 27.4555C76.3484 26.5701 75.6712 25.7433 74.7681 25.7432H30.0337C29.2439 25.7432 28.6036 25.1029 28.6036 24.3131V1.43018C28.6036 0.640313 29.2439 0 30.0337 0H105.283ZM45.9379 177.756C42.4026 177.546 39.2423 177.952 37.0649 178.525L37.0411 178.531L37.0198 178.543C26.7872 184.547 22.818 191.654 21.3291 197.52C20.5855 200.45 20.4617 203.064 20.4802 205.067C20.4895 206.066 20.5343 206.919 20.555 207.572C20.5653 207.901 20.5696 208.178 20.5609 208.403C20.5521 208.63 20.5301 208.788 20.4963 208.885C20.3981 209.166 20.3605 209.666 20.3898 210.305C20.4196 210.953 20.5194 211.767 20.7117 212.691C21.0966 214.54 21.8534 216.841 23.1685 219.151C25.8014 223.776 30.672 228.436 39.2531 229.581C52.9473 231.409 62.7779 224.982 65.9953 221.519L66.0093 221.504L66.0194 221.487C67.6886 218.567 69.6862 213.437 70.2691 207.518C70.8521 201.597 70.0202 194.872 66.0138 188.78C65.314 187.716 64.5636 186.747 63.7729 185.866L57.6436 212.17C57.4927 212.818 56.9155 213.276 56.2508 213.276H40.5401C39.637 213.276 38.9598 212.449 39.1379 211.563L45.9379 177.756ZM295.098 178.459C289.657 177.213 284.428 177.694 281.268 178.525L281.244 178.531L281.223 178.543C273.564 183.037 269.414 188.149 267.187 192.896H295.511C296.301 192.896 296.941 193.536 296.941 194.326V211.876C296.941 212.654 296.32 213.289 295.542 213.306L265.181 213.808C265.613 215.428 266.31 217.286 267.372 219.151C270.005 223.776 274.875 228.436 283.456 229.581C297.151 231.409 306.981 224.982 310.199 221.519L310.213 221.504L310.223 221.487C311.892 218.567 313.889 213.437 314.472 207.518C315.055 201.597 314.223 194.872 310.217 188.78C306.208 182.685 300.543 179.706 295.098 178.459Z" fill="#DCB0D9"/>
</svg>
