<svg width="235" height="348" viewBox="0 0 235 348" fill="none" xmlns="http://www.w3.org/2000/svg">
<path fill-rule="evenodd" clip-rule="evenodd" d="M118.69 0.00837996V0.0136174C126.004 0.0942371 154.484 0.50775 154.528 0.508384L154.675 20.5941L145.505 21.1025C145.505 21.1025 144.923 35.4381 144.778 38.4948C144.632 41.5518 143.833 59.5241 143.833 60.6898C143.833 61.8534 143.922 61.7674 144.923 63.0194C150.163 69.568 152.71 76.1909 153.656 79.6107C154.603 83.0305 154.603 83.3947 157.44 84.5594C160.278 85.723 186.403 98.2397 192.88 101.806C199.356 105.371 208.233 111.266 212.599 114.467C216.962 117.667 234.761 130.816 234.795 130.841L224.752 145.978C224.752 145.978 209.034 135.862 207.797 134.916C206.56 133.971 206.633 134.772 206.633 135.571C206.633 136.373 206.56 153.327 206.56 155.583C206.56 157.839 207.07 194.588 207.142 198.736C207.214 202.884 208.015 226.898 208.307 231.265C208.597 235.631 208.888 239.123 209.469 241.963C210.052 244.801 213.472 260.227 215.146 267.359C216.82 274.489 222.86 300.759 224.242 307.309C225.625 313.86 227.59 322.01 227.59 322.01C227.59 322.01 205.832 322.664 200.666 322.957C195.5 323.246 184.655 324.048 184.655 324.048L185.53 347.48L167.7 347.552L166.9 324.119C166.9 324.119 165.445 324.12 161.369 324.192C157.296 324.265 130.588 324.557 124.911 324.484C123.595 324.467 121.37 324.466 118.69 324.472V324.48C118.251 324.479 117.82 324.478 117.397 324.476C116.975 324.478 116.543 324.479 116.105 324.48V324.472C113.425 324.466 111.199 324.467 109.884 324.484C104.206 324.557 77.499 324.265 73.4252 324.192C69.3493 324.12 67.8948 324.119 67.8948 324.119L67.0942 347.552L49.2647 347.48L50.1398 324.048C50.1398 324.048 39.2951 323.246 34.1288 322.957C28.9622 322.664 7.20467 322.01 7.20467 322.01C7.20467 322.01 9.17011 313.86 10.5525 307.309C11.9349 300.759 17.975 274.489 19.6482 267.359C21.3226 260.227 24.7424 244.801 25.3253 241.963C25.9071 239.123 26.1978 235.631 26.4877 231.265C26.7796 226.898 27.5803 202.884 27.6525 198.736C27.7247 194.588 28.2342 157.839 28.2342 155.583C28.2342 153.327 28.1619 136.373 28.1619 135.571C28.1619 134.772 28.2342 133.971 26.9974 134.916C25.7605 135.862 10.0427 145.978 10.0427 145.978L0 130.841C0.0340958 130.816 17.8327 117.667 22.1954 114.467C26.5612 111.266 35.4391 105.371 41.9145 101.806C48.392 98.2397 74.5167 85.723 77.3547 84.5594C80.1916 83.3947 80.1916 83.0305 81.1386 79.6107C82.0846 76.1909 84.6318 69.568 89.8712 63.0194C90.8722 61.7674 90.9617 61.8534 90.9617 60.6898C90.9616 59.5241 90.1623 41.5518 90.0168 38.4948C89.8714 35.4381 89.2895 21.1025 89.2895 21.1025L80.1194 20.5941L80.2671 0.508384C80.3108 0.50775 108.791 0.0942371 116.105 0.0136174V0.00837996C116.586 0.00299314 116.945 0 117.123 0C117.19 1.71058e-07 117.282 0.000983392 117.397 0.00174583C117.513 0.000983392 117.605 1.71058e-07 117.671 0C117.849 0 118.209 0.00299314 118.69 0.00837996ZM95.5473 258.191C95.5447 258.208 95.1838 260.682 95.0389 265.757C94.8913 270.853 93.874 296.978 93.8018 300.105C93.7289 303.22 93.9454 305.18 93.9474 305.199L109.302 304.617C109.303 304.607 109.446 303.373 109.446 301.707C109.446 300.032 109.739 281.112 109.956 276.165C110.174 271.224 110.61 258.969 110.612 258.917L95.5473 258.191ZM124.183 258.917C124.184 258.969 124.62 271.224 124.839 276.165C125.055 281.112 125.348 300.032 125.349 301.707C125.349 303.373 125.492 304.607 125.493 304.617L140.847 305.199C140.849 305.18 141.066 303.22 140.993 300.105C140.921 296.978 139.903 270.853 139.756 265.757C139.611 260.682 139.25 258.208 139.247 258.191L124.183 258.917ZM67.9671 256.953C67.9671 256.953 67.3853 260.738 67.0222 264.085C66.657 267.434 63.0916 296.322 62.6542 299.16C62.2189 301.998 62.2921 304.473 62.2921 304.473L79.1012 305.127C79.1012 305.127 79.2468 298.505 79.5367 294.793C79.8286 291.082 81.2119 266.705 81.5772 263.065C81.9392 259.428 82.3768 257.608 82.3768 257.608L67.9671 256.953ZM152.418 257.608C152.418 257.608 152.855 259.428 153.217 263.065C153.583 266.705 154.966 291.082 155.258 294.793C155.548 298.505 155.693 305.127 155.693 305.127L172.503 304.473C172.503 304.473 172.576 301.998 172.14 299.16C171.703 296.322 168.138 267.434 167.772 264.085C167.409 260.738 166.828 256.953 166.828 256.953L152.418 257.608ZM40.4599 256.152C40.4599 256.152 39.3695 259.573 38.7867 263.576C38.2048 267.577 32.6002 294.793 31.9451 297.995C31.29 301.198 30.7824 304.327 30.7824 304.327L48.8297 303.962C48.8297 303.962 49.1925 301.487 49.5566 298.287C49.9198 295.084 53.3396 270.632 53.777 267.359C54.2144 264.084 54.9418 256.152 54.9418 256.152H40.4599ZM179.853 256.152C179.853 256.152 180.58 264.084 181.018 267.359C181.455 270.632 184.875 295.084 185.238 298.287C185.602 301.487 185.965 303.962 185.965 303.962L204.012 304.327C204.012 304.327 203.505 301.198 202.85 297.995C202.194 294.793 196.59 267.577 196.008 263.576C195.425 259.573 194.335 256.152 194.335 256.152H179.853ZM46.5001 154.856C46.4956 154.913 45.1895 171.529 44.9002 177.05C44.6071 182.581 43.9519 202.665 44.0252 206.303C44.0812 209.073 44.0995 217.51 44.0995 217.51C44.0995 217.51 56.2521 217.801 57.8521 217.801C59.4519 217.801 58.8756 217.508 58.5071 216.055C54.4323 199.973 54.6607 190.295 54.6499 188.255C54.5767 174.358 59.3797 163.588 60.7621 160.168C62.1433 156.756 63.8122 154.865 63.82 154.856H46.5001ZM170.975 154.856C170.982 154.865 172.651 156.756 174.033 160.168C175.415 163.588 180.218 174.358 180.145 188.255C180.134 190.295 180.362 199.973 176.288 216.055C175.919 217.508 175.343 217.801 176.943 217.801C178.543 217.801 190.695 217.51 190.695 217.51C190.695 217.51 190.713 209.073 190.769 206.303C190.843 202.665 190.188 182.581 189.894 177.05C189.605 171.529 188.299 154.913 188.295 154.856H170.975ZM117.397 184.809C112.939 185.528 112.171 189.452 112.067 191.312C111.781 196.384 115.156 198.156 117.397 198.578C119.638 198.156 123.014 196.384 122.728 191.312C122.623 189.452 121.856 185.528 117.397 184.809ZM118.69 135.559V135.569C118.33 135.568 117.894 135.565 117.397 135.564C116.9 135.565 116.465 135.568 116.105 135.569V135.559C110.179 135.539 99.2183 135.499 99.187 135.499L98.6772 145.396C98.6772 145.396 104.279 145.687 107.627 145.832C110.207 145.944 113.995 146.055 117.397 146.101C120.799 146.055 124.588 145.944 127.168 145.832C130.516 145.687 136.117 145.396 136.117 145.396L135.608 135.499C135.576 135.499 124.616 135.539 118.69 135.559ZM117.397 73.6724C115.379 73.9218 111.887 74.5942 110.684 75.3173C98.4597 82.6666 100.819 94.5475 101.079 96.3479C102.536 106.559 112.413 108.684 117.397 109.081C122.382 108.684 132.258 106.559 133.716 96.3479C133.976 94.5475 136.335 82.6666 124.11 75.3173C122.908 74.5942 119.415 73.9218 117.397 73.6724Z" fill="#EA8F5E"/>
</svg>
