<svg width="100" height="74" viewBox="0 0 100 74" fill="none" xmlns="http://www.w3.org/2000/svg">
<path d="M11.9552 51.9987C14.3582 51.9212 66.9068 51.9664 92.8809 51.9987H100V66.4885H92.8809C92.445 62.4663 89.6167 54.5381 81.7905 55.0033C73.9643 55.4685 71.9432 58.8479 71.9109 60.4794C70.797 58.3956 67.1938 54.383 61.6923 55.0033C56.1907 55.6236 53.5562 58.9125 52.9266 60.4794C51.6836 58.654 48.1611 55.0033 44.0155 55.0033C38.8336 55.0033 35.1045 57.8625 34.3297 60.4794C32.7961 58.654 28.8087 55.0033 25.1281 55.0033C20.5273 55.0033 15.1516 57.6686 13.9409 63.5809L11.1319 74H0.235316C0.0577409 73.4185 -0.190864 72.0809 0.235316 71.3831C0.661681 70.6848 5.90161 59.1062 8.46832 53.4041C8.62978 52.9679 9.55319 52.0762 11.9552 51.9987Z" fill="#84DCC6"/>
<path d="M22.2541 58.3512C23.2137 58.1031 24.8024 57.9593 26.4555 58.3317C28.1097 58.7043 29.8308 59.5945 31.0487 61.4164C32.266 63.2375 32.5189 65.2478 32.3417 67.0184C32.1646 68.7884 31.5574 70.3221 31.0503 71.1948L31.0474 71.1997L31.0435 71.2037C30.0664 72.2384 27.0795 74.1596 22.9186 73.6133C20.312 73.2711 18.8327 71.8787 18.0329 70.4963C17.6333 69.8058 17.4033 69.1181 17.2864 68.5654C17.2279 68.289 17.1976 68.0458 17.1886 67.8524C17.1796 67.6611 17.1912 67.5124 17.2208 67.429C17.2313 67.3993 17.2379 67.3518 17.2406 67.2836C17.2432 67.2164 17.2419 67.1333 17.2388 67.035C17.2325 66.8393 17.2189 66.5846 17.2161 66.2857C17.2104 65.6868 17.2481 64.9052 17.474 64.0293C17.9264 62.2758 19.1323 60.1512 22.242 58.3562L22.2477 58.3529L22.2541 58.3512Z" fill="#84DCC6"/>
<path d="M59.7385 58.3512C60.6981 58.1031 62.2868 57.9593 63.9399 58.3317C65.5941 58.7043 67.3152 59.5945 68.5331 61.4164C69.7504 63.2375 70.0033 65.2478 69.8261 67.0184C69.649 68.7884 69.0418 70.3221 68.5347 71.1948L68.5318 71.1997L68.5279 71.2037C67.5508 72.2384 64.5639 74.1596 60.403 73.6133C57.7964 73.2711 56.3171 71.8787 55.5173 70.4963C55.1177 69.8058 54.8877 69.1181 54.7708 68.5654C54.7123 68.289 54.682 68.0458 54.673 67.8524C54.664 67.6611 54.6756 67.5124 54.7052 67.429C54.7157 67.3993 54.7223 67.3518 54.725 67.2836C54.7276 67.2164 54.7263 67.1333 54.7232 67.035C54.7169 66.8393 54.7033 66.5846 54.7005 66.2857C54.6948 65.6868 54.7325 64.9052 54.9584 64.0293C55.4108 62.2758 56.6167 60.1512 59.7264 58.3562L59.7321 58.3529L59.7385 58.3512Z" fill="#84DCC6"/>
<path d="M43.3039 57.7139C44.1012 57.7129 44.8115 57.8574 45.3483 58.0325C45.6167 58.12 45.8423 58.2153 46.0142 58.3042C46.1842 58.3921 46.3071 58.4765 46.3646 58.5439C46.385 58.5678 46.4228 58.5973 46.4804 58.6337C46.5373 58.6696 46.6099 58.71 46.6966 58.7565C46.869 58.8488 47.0963 58.9644 47.3563 59.1114C47.8774 59.4059 48.5352 59.8294 49.1802 60.4631C50.4716 61.7319 51.7073 63.8393 51.7061 67.4315V67.4382L51.7044 67.4445C51.4393 68.4002 50.7695 69.8488 49.6206 71.0952C48.471 72.3423 46.8399 73.3887 44.6542 73.5332C42.4694 73.6776 40.6032 72.8916 39.1595 71.8528C37.7162 70.8143 36.6924 69.5212 36.1906 68.6453L36.1879 68.6405L36.1862 68.6351C35.7794 67.271 35.61 63.722 38.1633 60.3893C39.7628 58.3016 41.7076 57.7159 43.3039 57.7139Z" fill="#84DCC6"/>
<path d="M80.7883 57.7139C81.5856 57.7129 82.2959 57.8574 82.8327 58.0325C83.1011 58.12 83.3267 58.2153 83.4986 58.3042C83.6686 58.3921 83.7915 58.4765 83.849 58.5439C83.8694 58.5678 83.9072 58.5973 83.9648 58.6337C84.0217 58.6696 84.0943 58.71 84.181 58.7565C84.3534 58.8488 84.5807 58.9644 84.8407 59.1114C85.3618 59.4059 86.0196 59.8294 86.6646 60.4631C87.956 61.7319 89.1917 63.8393 89.1905 67.4315V67.4382L89.1888 67.4445C88.9237 68.4002 88.2539 69.8488 87.105 71.0952C85.9554 72.3423 84.3243 73.3887 82.1386 73.5332C79.9538 73.6776 78.0876 72.8916 76.6439 71.8528C75.2006 70.8143 74.1768 69.5212 73.675 68.6453L73.6722 68.6405L73.6706 68.6351C73.2638 67.271 73.0944 63.722 75.6477 60.3893C77.2472 58.3016 79.192 57.7159 80.7883 57.7139Z" fill="#84DCC6"/>
<path fill-rule="evenodd" clip-rule="evenodd" d="M33.5548 6.29993H32.1503V25.8782H37.865V16.3798H48.7132V25.8782H51.8127V16.3798H62.6609V25.8782H68.0366L69.5163 6.54224H67.5502V0.387688H98.545V6.54224H96.7068V23.7944L95.7866 49.2849H11.1319C9.30777 48.3641 5.49476 44.3612 4.83611 35.7158C4.17747 27.0703 8.7589 22.4859 11.1319 21.2744H13.2628L11.9883 6.29993H8.90419L7.74188 0H34.8139L33.5548 6.29993ZM75.7368 8.91683L74.5745 23.8913H91.6701V8.91683H75.7368Z" fill="#84DCC6"/>
</svg>
