<svg width="314" height="233" viewBox="0 0 314 233" fill="none" xmlns="http://www.w3.org/2000/svg">
<path d="M37.5304 163.056C45.074 162.813 210.037 162.954 291.576 163.056H313.925V208.493H291.576C290.208 195.88 281.329 171.019 256.761 172.477C232.192 173.936 225.847 184.533 225.746 189.649C222.249 183.115 210.938 170.532 193.667 172.477C176.397 174.423 168.126 184.736 166.149 189.649C162.247 183.925 151.189 172.478 138.176 172.477C121.908 172.477 110.202 181.443 107.769 189.649C102.955 183.925 90.4375 172.478 78.8831 172.477C64.4401 172.477 47.5646 180.835 43.7638 199.375L34.9459 232.047H0.738713C0.181263 230.223 -0.599168 226.029 0.738713 223.841C2.07718 221.651 18.5266 185.343 26.5841 167.463C27.091 166.095 29.9898 163.299 37.5304 163.056Z" fill="#559568"/>
<path d="M69.861 182.976C72.8736 182.198 77.8607 181.747 83.0504 182.914C88.2432 184.083 93.6461 186.874 97.4693 192.588C101.291 198.298 102.085 204.602 101.528 210.154C100.972 215.704 99.0665 220.514 97.4744 223.25L97.4655 223.266L97.4533 223.278C94.3858 226.523 85.0093 232.547 71.947 230.834C63.7645 229.761 59.1206 225.395 56.6096 221.06C55.3553 218.895 54.6332 216.738 54.2661 215.005C54.0826 214.138 53.9874 213.376 53.9591 212.769C53.9311 212.169 53.9675 211.703 54.0604 211.442C54.0933 211.349 54.114 211.2 54.1224 210.986C54.1307 210.775 54.1267 210.514 54.1168 210.206C54.0971 209.592 54.0543 208.794 54.0455 207.856C54.0278 205.979 54.1459 203.527 54.8553 200.781C56.2755 195.282 60.0611 188.62 69.823 182.991L69.8411 182.981L69.861 182.976Z" fill="#559568"/>
<path d="M187.534 182.976C190.546 182.198 195.533 181.747 200.723 182.914C205.916 184.083 211.319 186.874 215.142 192.588C218.964 198.298 219.757 204.602 219.201 210.154C218.645 215.704 216.739 220.514 215.147 223.25L215.138 223.266L215.126 223.278C212.059 226.523 202.682 232.547 189.62 230.834C181.437 229.761 176.793 225.395 174.282 221.06C173.028 218.895 172.306 216.738 171.939 215.005C171.755 214.138 171.66 213.376 171.632 212.769C171.604 212.169 171.64 211.703 171.733 211.442C171.766 211.349 171.787 211.2 171.795 210.986C171.803 210.775 171.799 210.514 171.79 210.206C171.77 209.592 171.727 208.794 171.718 207.856C171.701 205.979 171.819 203.527 172.528 200.781C173.948 195.282 177.734 188.62 187.496 182.991L187.514 182.981L187.534 182.976Z" fill="#559568"/>
<path d="M135.941 180.977C138.445 180.974 140.674 181.427 142.359 181.976C143.202 182.251 143.91 182.55 144.45 182.828C144.984 183.104 145.37 183.369 145.55 183.58C145.614 183.655 145.732 183.747 145.913 183.862C146.092 183.974 146.32 184.101 146.592 184.247C147.133 184.536 147.847 184.899 148.663 185.36C150.299 186.283 152.364 187.611 154.389 189.598C158.443 193.577 162.322 200.185 162.318 211.45V211.47L162.313 211.49C161.48 214.487 159.378 219.029 155.771 222.938C152.162 226.849 147.042 230.13 140.181 230.583C133.322 231.036 127.463 228.571 122.931 225.313C118.4 222.057 115.186 218.002 113.611 215.256L113.603 215.241L113.598 215.224C112.32 210.946 111.789 199.817 119.804 189.367C124.825 182.82 130.93 180.984 135.941 180.977Z" fill="#559568"/>
<path d="M253.614 180.977C256.117 180.974 258.347 181.427 260.032 181.976C260.875 182.251 261.583 182.55 262.123 182.828C262.656 183.104 263.042 183.369 263.222 183.58C263.287 183.655 263.405 183.747 263.586 183.862C263.765 183.974 263.993 184.101 264.265 184.247C264.806 184.536 265.52 184.899 266.336 185.36C267.972 186.283 270.037 187.611 272.061 189.598C276.115 193.577 279.995 200.185 279.991 211.45V211.47L279.985 211.49C279.153 214.487 277.051 219.029 273.444 222.938C269.835 226.849 264.715 230.13 257.853 230.583C250.995 231.036 245.136 228.571 240.604 225.313C236.073 222.057 232.859 218.002 231.284 215.256L231.275 215.241L231.27 215.224C229.993 210.946 229.461 199.817 237.477 189.367C242.498 182.82 248.603 180.984 253.614 180.977Z" fill="#559568"/>
<path fill-rule="evenodd" clip-rule="evenodd" d="M105.337 19.7551H100.928V81.148H118.868V51.3633H152.923V81.148H162.653V51.3633H196.708V81.148H213.583L218.229 20.5149H212.057V1.2157H309.357V20.5149H303.586V74.6136L300.698 154.546H34.9459C29.2194 151.659 17.2494 139.106 15.1817 111.996C13.1141 84.8862 27.4963 70.5106 34.9459 66.7115H41.6353L37.6341 19.7551H27.9524L24.3037 0H109.29L105.337 19.7551ZM237.757 27.9611L234.108 74.9175H287.775V27.9611H237.757Z" fill="#559568"/>
</svg>
