<svg width="248" height="329" viewBox="0 0 248 329" fill="none" xmlns="http://www.w3.org/2000/svg">
<path d="M124.046 0.0361328L129.268 1.77637C129.275 1.83372 130.208 8.64818 130.888 16.7949C131.568 24.9762 131.824 34.9474 131.91 37.4189C131.995 39.8912 131.831 39.4913 134.211 41.3408C152.533 55.5726 162.728 71.1688 165.658 75.0029C179.464 93.0698 181.083 109.433 182.106 116.763C183.129 124.09 183.98 137.301 184.066 142.586C184.152 147.869 183.811 158.177 183.811 162.952C183.811 173.348 182.106 187.924 181.254 193.719C180.401 199.514 177.249 223.289 176.907 225.338C176.567 227.381 177.079 227.637 179.55 229.768C182.022 231.901 198.043 243.233 200.854 245.277C203.656 247.315 208.319 250.62 208.353 250.645C208.361 250.594 209.548 245.514 210.059 241.521C210.569 237.525 212.688 226.761 212.701 226.692L246.876 228.822C246.879 228.863 247.136 232.354 247.728 238.793C248.324 245.269 247.728 252.264 247.471 257.378C247.216 262.49 242.357 291.468 241.08 298.798C239.802 306.128 235.369 326.069 235.369 326.069L209.633 325.133L207.502 310.389C207.447 310.372 192.497 305.871 189.094 305.02C185.695 304.167 167.794 300.012 167.704 299.991C167.704 299.991 165.915 309.365 165.402 312.519C164.891 315.672 163.527 327.519 163.527 327.519C163.467 327.52 130.032 328.283 125.859 328.283C125.484 328.283 124.842 328.277 123.992 328.266C123.142 328.277 122.501 328.283 122.125 328.283C117.949 328.283 84.457 327.519 84.457 327.519C84.4554 327.504 83.0929 315.67 82.582 312.519C82.0703 309.368 80.2844 300.008 80.2812 299.991C80.2812 299.991 62.2981 304.165 58.8906 305.02C55.4838 305.871 40.5078 310.381 40.4824 310.389L38.3515 325.133L12.6152 326.069C12.6152 326.069 8.18276 306.128 6.90428 298.798C5.62693 291.468 0.768695 262.49 0.513653 257.378C0.2565 252.264 -0.339582 245.269 0.25584 238.793C0.8488 232.354 1.10535 228.863 1.10838 228.822L35.2832 226.692C35.2968 226.762 37.4152 237.525 37.9258 241.521C38.4365 245.515 39.6241 250.593 39.6308 250.645C39.6687 250.618 44.3295 247.315 47.1299 245.277C49.9415 243.233 65.9626 231.901 68.4346 229.768C70.9057 227.637 71.4174 227.381 71.0771 225.338C70.7357 223.289 67.5831 199.514 66.7304 193.719C65.8779 187.924 64.1738 173.348 64.1738 162.952C64.1738 158.177 63.8326 147.869 63.9179 142.586C64.0044 137.301 64.8556 124.09 65.8779 116.763C66.9012 109.433 68.5202 93.0698 82.3262 75.0029C85.2561 71.1686 95.4518 55.5724 113.773 41.3408C116.153 39.4913 115.989 39.8912 116.074 37.4189C116.161 34.9474 116.416 24.9762 117.097 16.7949C117.777 8.64887 118.709 1.83486 118.717 1.77637L123.938 0.0361328V0L123.992 0.0175781L124.046 0V0.0361328ZM123.992 101.207C121.634 101.264 119.054 101.395 118.291 101.678C100.566 108.24 100.111 122.901 100.223 125.114C101.336 146.917 117.679 148.521 123.417 148.569H124.567C130.305 148.521 146.648 146.917 147.762 125.114C147.873 122.901 147.419 108.24 129.693 101.678C128.931 101.395 126.351 101.264 123.992 101.207Z" fill="#559568"/>
</svg>
