<svg width="100" height="62" viewBox="0 0 100 62" fill="none" xmlns="http://www.w3.org/2000/svg">
<path fill-rule="evenodd" clip-rule="evenodd" d="M99.1131 44.1338C99.1011 44.2566 99.0601 44.375 98.9933 44.4791L87.9963 61.6375C87.8516 61.8633 87.6009 62 87.3316 62H15.6978C15.4451 62 15.2084 61.8808 15.0611 61.6768C8.55049 52.6618 2.66473 41.0207 0.0702911 35.3256C-0.164206 34.8109 0.21692 34.2322 0.785357 34.2322H99.2117C99.6771 34.2322 100.041 34.631 99.9962 35.0915L99.1131 44.1338ZM46.5905 41.858C45.6559 41.3114 43.5399 40.6078 42.5527 42.1659C41.3187 44.1135 41.8049 45.4597 43.5974 46.582C45.0313 47.4798 46.5049 46.4346 47.0624 45.7997C47.6832 44.973 48.458 43.0273 46.5905 41.858ZM72.7501 41.858C71.8155 41.3114 69.6995 40.6078 68.7123 42.1659C67.4783 44.1135 67.9645 45.4597 69.757 46.582C71.1909 47.4798 72.6644 46.4346 73.2219 45.7997C73.8428 44.973 74.6175 43.0273 72.7501 41.858ZM32.2919 41.2354C31.2081 41.268 29.0405 41.7937 29.0404 43.6351C29.0404 45.9368 30.1735 46.8183 32.2919 46.8183C33.9866 46.8183 34.673 45.1532 34.8044 44.3207C34.8865 43.2922 34.4989 41.2354 32.2919 41.2354ZM58.4515 41.2354C57.3677 41.268 55.2 41.7937 55.2 43.6351C55.2 45.9368 56.3331 46.8183 58.4515 46.8183C60.1462 46.8183 60.8326 45.1532 60.964 44.3207C61.0461 43.2922 60.6585 41.2354 58.4515 41.2354Z" fill="#F1AAB9"/>
<path d="M71.2193 20.6667C71.2793 20.6667 71.3386 20.6729 71.3965 20.6884C72.0723 20.8698 73.4541 21.5093 74.2162 22.8215C74.9031 24.0043 77.5108 28.2112 79.2347 30.9796C79.56 31.5019 79.1814 32.1754 78.5634 32.1754H21.6492C20.9251 32.1754 20.5842 31.2863 21.1245 30.8071L31.3703 21.7207C31.4261 21.6712 31.4879 21.63 31.5559 21.599C32.2974 21.2608 33.8736 20.6667 35.0015 20.6667H71.2193Z" fill="#F1AAB9"/>
<path d="M48.044 11.7715C49.8996 11.758 53.9358 11.739 55.2364 11.7715C56.5369 11.8041 56.8292 12.5178 56.8127 12.8706V17.8262C56.8127 18.259 56.4598 18.6098 56.0245 18.6098H41.2332C40.5104 18.6098 40.1687 17.7236 40.7063 17.2434L40.9993 16.9816C42.1816 15.9912 44.8123 13.7823 45.8764 12.8706C46.9404 11.9588 47.7649 11.758 48.044 11.7715Z" fill="#F1AAB9"/>
<path d="M63.9075 17.8262C63.9075 18.259 63.5546 18.6098 63.1193 18.6098H59.2767C58.8413 18.6098 58.4884 18.259 58.4884 17.8262V0.78357C58.4884 0.350816 58.8413 0 59.2767 0H63.1193C63.5546 0 63.9075 0.350816 63.9075 0.78357V17.8262Z" fill="#F1AAB9"/>
<path d="M69.5237 17.7283C69.5237 18.161 69.1708 18.5118 68.7355 18.5118H65.9767C65.5413 18.5118 65.1884 18.161 65.1884 17.7283V7.44392C65.1884 7.01116 65.5413 6.66035 65.9767 6.66035H68.7355C69.1708 6.66035 69.5237 7.01116 69.5237 7.44392V17.7283Z" fill="#F1AAB9"/>
</svg>
