<svg width="363" height="227" viewBox="0 0 363 227" fill="none" xmlns="http://www.w3.org/2000/svg">
<path fill-rule="evenodd" clip-rule="evenodd" d="M359.663 161.107C359.62 161.555 359.471 161.987 359.228 162.367L319.322 225.003C318.797 225.827 317.887 226.326 316.91 226.326H56.9644C56.0476 226.326 55.1886 225.891 54.6539 225.146C31.0281 192.238 9.66982 149.743 0.255073 128.953C-0.595874 127.074 0.787161 124.962 2.84991 124.962H360.021C361.71 124.962 363.031 126.418 362.868 128.099L359.663 161.107ZM169.068 152.799C165.677 150.804 157.998 148.235 154.416 153.923C149.938 161.033 151.702 165.947 158.207 170.044C163.41 173.321 168.757 169.506 170.781 167.188C173.034 164.17 175.845 157.068 169.068 152.799ZM263.996 152.799C260.605 150.804 252.927 148.235 249.344 153.923C244.866 161.033 246.631 165.947 253.135 170.044C258.339 173.321 263.686 169.506 265.709 167.188C267.962 164.17 270.773 157.068 263.996 152.799ZM117.181 150.526C113.248 150.646 105.382 152.565 105.382 159.286C105.382 167.689 109.494 170.907 117.181 170.907C123.331 170.907 125.822 164.828 126.299 161.789C126.597 158.035 125.19 150.526 117.181 150.526ZM212.11 150.526C208.177 150.646 200.311 152.565 200.311 159.286C200.311 167.689 204.422 170.907 212.11 170.907C218.259 170.907 220.75 164.828 221.227 161.789C221.525 158.035 220.118 150.526 212.11 150.526Z" fill="#F1AAB9"/>
<path d="M258.442 75.442C258.659 75.442 258.875 75.4647 259.085 75.5214C261.537 76.1837 266.551 78.5181 269.317 83.308C271.81 87.6256 281.272 102.983 287.528 113.089C288.708 114.995 287.335 117.454 285.092 117.454H78.561C75.9334 117.454 74.6961 114.208 76.6568 112.459L113.837 79.2897C114.039 79.1091 114.264 78.9585 114.51 78.8454C117.201 77.611 122.921 75.442 127.014 75.442H258.442Z" fill="#F1AAB9"/>
<path d="M174.343 42.971C181.076 42.9215 195.723 42.8522 200.443 42.971C205.162 43.0899 206.222 45.6952 206.163 46.983V65.0732C206.163 66.6529 204.882 67.9336 203.303 67.9336H149.627C147.005 67.9336 145.765 64.6985 147.716 62.9456L148.779 61.9901C153.069 58.3745 162.615 50.3113 166.477 46.983C170.338 43.6546 173.33 42.9215 174.343 42.971Z" fill="#F1AAB9"/>
<path d="M231.909 65.0732C231.909 66.6529 230.628 67.9336 229.048 67.9336H215.104C213.524 67.9336 212.244 66.6529 212.244 65.0732V2.86036C212.244 1.28063 213.524 0 215.104 0H229.048C230.628 0 231.909 1.28063 231.909 2.86036V65.0732Z" fill="#F1AAB9"/>
<path d="M252.289 64.7156C252.289 66.2954 251.008 67.576 249.428 67.576H239.417C237.837 67.576 236.557 66.2954 236.557 64.7156V27.1734C236.557 25.5937 237.837 24.3131 239.417 24.3131H249.428C251.008 24.3131 252.289 25.5937 252.289 27.1734V64.7156Z" fill="#F1AAB9"/>
</svg>
