<svg width="363" height="220" viewBox="0 0 363 220" fill="none" xmlns="http://www.w3.org/2000/svg">
<path d="M289.851 127.563L290.084 103.365L312.87 101.721L313.336 127.093L289.851 127.563ZM266.825 47.2202L248.03 30.3027L265.883 14.0979L283.976 29.8368L266.825 47.2202ZM229.945 127.093L229.705 102.899L253.436 102.426L253.906 127.563L229.945 127.093ZM171.919 125.922L170.271 102.659L196.346 102.193L197.288 127.093L171.919 125.922ZM133.623 124.747L110.837 125.213V103.365L133.623 103.132V124.747ZM103.317 46.2781L85.2314 28.4219L105.198 11.9841L121.876 30.5391L103.317 46.2781ZM75.3611 127.33L50.9305 125.685L52.1056 103.834L76.5362 104.54L75.3611 127.33ZM362.674 167.972L362.204 115.582L354.691 116.288C354.691 116.288 353.982 102.659 353.982 97.9623C353.982 93.2619 355.393 63.4285 310.284 61.7874C305.494 61.6093 273.639 59.9066 273.639 59.9066L303.946 29.6004L265.883 0.232962L228.297 30.3027L251.323 56.8506C251.323 56.8506 197.525 57.7928 183.427 57.3234C169.332 56.8506 140.907 56.3813 128.926 58.0257C116.946 59.6736 112.951 60.1395 112.951 60.1395C112.951 60.1395 111.306 59.6736 115.767 54.9732C120.235 50.2727 139.259 31.9506 139.259 31.9506L105.904 0L71.3699 29.6004C71.3699 29.6004 85.9337 46.9838 88.5203 50.2727C91.1035 53.5617 97.445 62.4898 97.445 62.4898C97.445 62.4898 83.3505 62.2534 77.242 62.4898C71.1335 62.7227 48.8167 64.6036 39.892 68.3653C30.9605 72.1202 16.6297 78.6981 15.9239 102.193C15.8348 105.243 15.9239 110.885 15.9239 110.885H0V163.94C6.55046 163.666 15.6909 165.618 15.6909 165.618L15.9239 194.517L66.2001 197.573C66.2001 197.573 68.7833 198.511 68.7833 202.975C68.7833 207.436 71.6028 217.775 83.8199 218.478C89.9284 218.008 97.445 219.42 104.259 203.914C106.846 198.744 106.846 197.805 112.951 197.805H189.062C196.346 197.805 252.494 199.45 257.195 199.45C261.892 199.45 263.533 198.278 263.533 202.033C263.533 205.795 267.764 219.653 280.683 219.889C287.734 219.889 295.014 219.184 300.893 204.147C302.061 200.625 302.061 199.919 307.231 199.919C312.401 199.919 350.46 198.744 350.46 198.744L349.518 168.674L362.674 167.972Z" fill="#EA8F5E"/>
</svg>
