<svg width="373" height="225" viewBox="0 0 373 225" fill="none" xmlns="http://www.w3.org/2000/svg">
<path d="M85.7619 174.281C92.4062 172.675 107.803 172.413 116.235 184.208C124.666 196.003 119.748 210.26 116.235 215.914C112.86 219.255 102.5 225.493 88.0578 223.72C70.0068 221.503 67.6046 205.702 68.3342 203.771C69.0635 201.842 64.1626 185.941 85.7619 174.281ZM276.213 174.281C282.858 172.675 298.253 172.413 306.685 184.208C315.116 196.003 310.198 210.26 306.685 215.914C303.31 219.255 292.951 225.492 278.509 223.72C260.457 221.503 258.056 205.702 258.785 203.771C259.515 201.842 254.614 185.941 276.213 174.281ZM361.534 191.688L316.112 194.339C318.232 178.221 309.042 168.358 292.606 165H361.534V191.688ZM54.4348 25.9805C58.4347 19.0529 69.5335 19.3228 74.5832 20.3242H152.172V163.307H276.774C255.742 170.553 251.676 185.104 252.029 190.701H129.726C128.076 182.571 118.697 166.17 94.3781 165.604C70.0596 165.039 63.9789 182.1 63.9787 190.701H13.7854V165H3.68086C-2.15117 152.805 -0.207429 140.433 3.68086 133.187H13.7854V113.819C13.7855 104.064 17.084 97.3829 18.7336 95.2617C28.9671 75.0551 50.4337 32.9109 54.4348 25.9805ZM361.432 0V133.894H372.771V146.973H361.432V154.46H164.781V0H361.432ZM103.569 120.462H125.131V110.211H103.569V120.462ZM47.7189 95.6152H124.954V43.4775H72.1086L47.7189 95.6152Z" fill="#8CACD0"/>
</svg>
