<svg width="351" height="298" viewBox="0 0 351 298" fill="none" xmlns="http://www.w3.org/2000/svg">
<path fill-rule="evenodd" clip-rule="evenodd" d="M177.034 0.177027C214.967 1.06499 218.814 29.144 218.814 38.9808C219.162 53.7511 214.182 58.734 209.367 64.576C204.557 70.4181 199.917 71.1022 199.917 71.1022L201.292 108.552L248.192 108.896L249.054 144.8L200.609 145.656C200.609 145.656 204.213 196.504 204.905 206.299C205.589 216.09 209.023 245.809 209.542 249.932C210.056 254.053 210.564 252.487 213.15 251.991C263.135 242.371 288.388 205.438 299.553 190.149C310.712 174.881 319.293 152.235 319.311 152.185L350.231 177.785L349.544 194.788C349.544 194.788 334.601 193.758 330.82 193.413C327.04 193.069 327.541 193.801 326.354 196.334C309.178 232.924 282.826 254.361 268.805 264.876C252.316 277.244 235.137 284.115 223.11 287.38C212.32 290.309 186.861 295.037 177.034 296.844V297.516C176.658 297.456 176.305 297.418 175.907 297.343C175.673 297.3 175.408 297.251 175.115 297.197C174.822 297.251 174.558 297.3 174.324 297.343C173.926 297.418 173.572 297.456 173.197 297.516V296.844C163.37 295.037 137.911 290.309 127.121 287.38C115.093 284.115 97.9151 277.244 81.426 264.876C67.4044 254.361 41.0524 232.924 23.877 196.334C22.6896 193.801 23.1906 193.069 19.4104 193.413C15.6301 193.758 0.686459 194.788 0.686459 194.788L0 177.785L30.9193 152.185C30.9373 152.233 39.5186 174.881 50.6775 190.149C61.8431 205.438 87.0956 242.371 137.081 251.991C139.667 252.487 140.175 254.053 140.689 249.932C141.207 245.809 144.642 216.09 145.326 206.299C146.017 196.504 149.622 145.656 149.622 145.656L101.177 144.8L102.039 108.896L148.938 108.552L150.314 71.1022C150.314 71.1022 145.674 70.4181 140.864 64.576C136.049 58.734 131.069 53.7511 131.417 38.9808C131.417 29.144 135.264 1.06499 173.197 0.177027V0C173.931 0.0651029 174.577 0.121903 175.115 0.144554C175.653 0.121903 176.3 0.0651029 177.034 0V0.177027ZM175.115 19.2114C166.672 19.2449 161.093 20.9913 157.353 24.8941C153.4 29.0151 152.886 29.3609 152.373 36.2301C152.814 51.4163 166.418 53.8229 173.197 53.9816V53.8088C173.582 53.8438 173.923 53.8964 174.324 53.924C174.555 53.9412 174.82 53.9566 175.115 53.9683C175.411 53.9566 175.676 53.9412 175.907 53.924C176.307 53.8964 176.648 53.8438 177.034 53.8088V53.9816C183.813 53.8229 197.417 51.4163 197.858 36.2301C197.344 29.3609 196.831 29.0151 192.877 24.8941C189.138 20.9913 183.559 19.2449 175.115 19.2114Z" fill="#EA8F5E"/>
</svg>
