<svg width="152" height="32" viewBox="0 0 152 32" fill="none" xmlns="http://www.w3.org/2000/svg">
<path d="M0.760986 28.4301C-0.106038 29.1145 -0.25412 30.3721 0.430236 31.2391C1.11459 32.1062 2.37223 32.2542 3.23926 31.5699L2.00012 30L0.760986 28.4301ZM152 30L143.259 8.62417L129.118 26.8821L152 30ZM2.00012 30L3.23926 31.5699C3.99484 30.9735 4.7533 30.386 5.51458 29.8076L4.30456 28.2151L3.09454 26.6227C2.31355 27.2161 1.53568 27.8186 0.760986 28.4301L2.00012 30ZM9.01168 24.7769L10.1601 26.4143C11.7392 25.3068 13.3297 24.2375 14.9311 23.2071L13.8489 21.5252L12.7667 19.8433C11.1198 20.9029 9.48519 22.0019 7.86324 23.1395L9.01168 24.7769ZM18.8142 18.474L19.8252 20.1996C21.4858 19.2267 23.1573 18.2951 24.8394 17.4057L23.9044 15.6376L22.9695 13.8696C21.2353 14.7867 19.513 15.7465 17.8031 16.7484L18.8142 18.474ZM29.1171 13.03L29.9707 14.8386C31.7075 14.0189 33.4548 13.2436 35.2121 12.5135L34.4447 10.6665L33.6774 8.8196C31.8611 9.57423 30.0563 10.3751 28.2634 11.2213L29.1171 13.03ZM39.879 8.56213L40.5552 10.4444C42.3576 9.79689 44.1699 9.19657 45.9917 8.64415L45.4114 6.73021L44.831 4.81626C42.944 5.38844 41.0678 6.00994 39.2029 6.67989L39.879 8.56213ZM51.0305 5.18353L51.5109 7.12497C53.3647 6.66624 55.2277 6.25684 57.0995 5.89755L56.7225 3.93341L56.3455 1.96926C54.4037 2.34197 52.4718 2.76654 50.55 3.24209L51.0305 5.18353ZM62.4732 2.98879L62.7441 4.97036C64.6308 4.71243 66.5261 4.50525 68.4293 4.34962L68.2663 2.35628L68.1033 0.362928C66.1276 0.524477 64.1604 0.739529 62.2023 1.00722L62.4732 2.98879ZM74.0857 2.03956L74.14 4.03882C75.0915 4.01297 76.0449 4 77.0001 4V2V0C76.0087 0 75.0191 0.0134665 74.0314 0.0402974L74.0857 2.03956ZM77.0001 2V4C77.9554 4 78.9087 4.01297 79.8602 4.03882L79.9145 2.03956L79.9689 0.0402976C78.9812 0.0134666 77.9916 0 77.0001 0V2ZM85.734 2.35628L85.571 4.34962C87.4742 4.50525 89.3694 4.71243 91.2562 4.97036L91.5271 2.98879L91.798 1.00722C89.8398 0.739529 87.8726 0.524478 85.897 0.362929L85.734 2.35628ZM97.2778 3.93341L96.9008 5.89755C98.7726 6.25684 100.636 6.66624 102.489 7.12497L102.97 5.18353L103.45 3.24209C101.528 2.76654 99.5965 2.34197 97.6548 1.96926L97.2778 3.93341ZM108.589 6.73021L108.009 8.64415C109.83 9.19657 111.643 9.79689 113.445 10.4444L114.121 8.56213L114.797 6.67989C112.932 6.00994 111.056 5.38844 109.169 4.81626L108.589 6.73021ZM119.556 10.6665L118.788 12.5135C120.545 13.2436 122.293 14.0189 124.029 14.8386L124.883 13.03L125.737 11.2213C123.944 10.3751 122.139 9.57423 120.323 8.81959L119.556 10.6665ZM130.096 15.6376L129.161 17.4057C130.843 18.2951 132.514 19.2267 134.175 20.1996L135.186 18.474L136.197 16.7484C134.487 15.7465 132.765 14.7867 131.031 13.8696L130.096 15.6376ZM140.151 21.5252L139.069 23.2071C140.671 24.2375 142.261 25.3068 143.84 26.4143L144.989 24.7769L146.137 23.1395C144.515 22.0019 142.88 20.9029 141.234 19.8433L140.151 21.5252ZM0.760986 28.4301C-0.106038 29.1145 -0.25412 30.3721 0.430236 31.2391C1.11459 32.1062 2.37223 32.2542 3.23926 31.5699L2.00012 30L0.760986 28.4301ZM152 30L143.259 8.62417L129.118 26.8821L152 30ZM2.00012 30L3.23926 31.5699C3.99484 30.9735 4.7533 30.386 5.51458 29.8076L4.30456 28.2151L3.09454 26.6227C2.31355 27.2161 1.53568 27.8186 0.760986 28.4301L2.00012 30ZM9.01168 24.7769L10.1601 26.4143C11.7392 25.3068 13.3297 24.2375 14.9311 23.2071L13.8489 21.5252L12.7667 19.8433C11.1198 20.9029 9.48519 22.0019 7.86324 23.1395L9.01168 24.7769ZM18.8142 18.474L19.8252 20.1996C21.4858 19.2267 23.1573 18.2951 24.8394 17.4057L23.9044 15.6376L22.9695 13.8696C21.2353 14.7867 19.513 15.7465 17.8031 16.7484L18.8142 18.474ZM29.1171 13.03L29.9707 14.8386C31.7075 14.0189 33.4548 13.2436 35.2121 12.5135L34.4447 10.6665L33.6774 8.8196C31.8611 9.57423 30.0563 10.3751 28.2634 11.2213L29.1171 13.03ZM39.879 8.56213L40.5552 10.4444C42.3576 9.79689 44.1699 9.19657 45.9917 8.64415L45.4114 6.73021L44.831 4.81626C42.944 5.38844 41.0678 6.00994 39.2029 6.67989L39.879 8.56213ZM51.0305 5.18353L51.5109 7.12497C53.3647 6.66624 55.2277 6.25684 57.0995 5.89755L56.7225 3.93341L56.3455 1.96926C54.4037 2.34197 52.4718 2.76654 50.55 3.24209L51.0305 5.18353ZM62.4732 2.98879L62.7441 4.97036C64.6308 4.71243 66.5261 4.50525 68.4293 4.34962L68.2663 2.35628L68.1033 0.362928C66.1276 0.524477 64.1604 0.739529 62.2023 1.00722L62.4732 2.98879ZM74.0857 2.03956L74.14 4.03882C75.0915 4.01297 76.0449 4 77.0001 4V2V0C76.0087 0 75.0191 0.0134665 74.0314 0.0402974L74.0857 2.03956ZM77.0001 2V4C77.9554 4 78.9087 4.01297 79.8602 4.03882L79.9145 2.03956L79.9689 0.0402976C78.9812 0.0134666 77.9916 0 77.0001 0V2ZM85.734 2.35628L85.571 4.34962C87.4742 4.50525 89.3694 4.71243 91.2562 4.97036L91.5271 2.98879L91.798 1.00722C89.8398 0.739529 87.8726 0.524478 85.897 0.362929L85.734 2.35628ZM97.2778 3.93341L96.9008 5.89755C98.7726 6.25684 100.636 6.66624 102.489 7.12497L102.97 5.18353L103.45 3.24209C101.528 2.76654 99.5965 2.34197 97.6548 1.96926L97.2778 3.93341ZM108.589 6.73021L108.009 8.64415C109.83 9.19657 111.643 9.79689 113.445 10.4444L114.121 8.56213L114.797 6.67989C112.932 6.00994 111.056 5.38844 109.169 4.81626L108.589 6.73021ZM119.556 10.6665L118.788 12.5135C120.545 13.2436 122.293 14.0189 124.029 14.8386L124.883 13.03L125.737 11.2213C123.944 10.3751 122.139 9.57423 120.323 8.81959L119.556 10.6665ZM130.096 15.6376L129.161 17.4057C130.843 18.2951 132.514 19.2267 134.175 20.1996L135.186 18.474L136.197 16.7484C134.487 15.7465 132.765 14.7867 131.031 13.8696L130.096 15.6376ZM140.151 21.5252L139.069 23.2071C140.671 24.2375 142.261 25.3068 143.84 26.4143L144.989 24.7769L146.137 23.1395C144.515 22.0019 142.88 20.9029 141.234 19.8433L140.151 21.5252Z" fill="#4B4E6D"/>
</svg>
