<svg width="32" height="152" viewBox="0 0 32 152" fill="none" xmlns="http://www.w3.org/2000/svg">
<path d="M3.56989 0.760864C2.88553 -0.10616 1.62789 -0.254242 0.760864 0.430114C-0.106159 1.11447 -0.254242 2.37211 0.430115 3.23914L2 2L3.56989 0.760864ZM2 152L23.3758 143.259L5.11788 129.117L2 152ZM2 2L0.430115 3.23914C1.02651 3.99472 1.61397 4.75318 2.19243 5.51445L3.78487 4.30443L5.37731 3.09441C4.78387 2.31343 4.18137 1.53556 3.56989 0.760864L2 2ZM7.2231 9.01155L5.58569 10.16C6.69324 11.7391 7.76251 13.3295 8.79287 14.9309L10.4748 13.8488L12.1567 12.7666C11.0971 11.1197 9.9981 9.48507 8.86051 7.86312L7.2231 9.01155ZM13.526 18.8141L11.8004 19.8251C12.7733 21.4856 13.7049 23.1572 14.5943 24.8392L16.3624 23.9043L18.1304 22.9694C17.2133 21.2351 16.2535 19.5129 15.2516 17.803L13.526 18.8141ZM18.97 29.117L17.1614 29.9706C17.9811 31.7074 18.7564 33.4546 19.4865 35.212L21.3335 34.4446L23.1804 33.6773C22.4258 31.8609 21.6249 30.0561 20.7787 28.2633L18.97 29.117ZM23.4379 39.8789L21.5556 40.5551C22.2031 42.3574 22.8034 44.1698 23.3558 45.9916L25.2698 45.4113L27.1837 44.8309C26.6116 42.9439 25.9901 41.0677 25.3201 39.2027L23.4379 39.8789ZM26.8165 51.0303L24.875 51.5108C25.3338 53.3645 25.7432 55.2276 26.1024 57.0994L28.0666 56.7224L30.0307 56.3453C29.658 54.4036 29.2335 52.4716 28.7579 50.5499L26.8165 51.0303ZM29.0112 62.473L27.0296 62.7439C27.2876 64.6307 27.4948 66.5259 27.6504 68.4292L29.6437 68.2662L31.6371 68.1032C31.4755 66.1275 31.2605 64.1603 30.9928 62.2022L29.0112 62.473ZM29.9604 74.0856L27.9612 74.1399C27.987 75.0914 28 76.0448 28 77H30H32C32 76.0086 31.9865 75.019 31.9597 74.0313L29.9604 74.0856ZM30 77H28C28 77.9552 27.987 78.9086 27.9612 79.8601L29.9604 79.9144L31.9597 79.9687C31.9865 78.981 32 77.9915 32 77H30ZM29.6437 85.7338L27.6504 85.5708C27.4948 87.4741 27.2876 89.3693 27.0296 91.2561L29.0112 91.527L30.9928 91.7979C31.2605 89.8397 31.4755 87.8725 31.6371 85.8968L29.6437 85.7338ZM28.0666 97.2776L26.1024 96.9006C25.7432 98.7724 25.3338 100.635 24.875 102.489L26.8165 102.97L28.7579 103.45C29.2335 101.528 29.658 99.5964 30.0307 97.6547L28.0666 97.2776ZM25.2698 108.589L23.3558 108.008C22.8034 109.83 22.2031 111.643 21.5556 113.445L23.4379 114.121L25.3201 114.797C25.9901 112.932 26.6116 111.056 27.1837 109.169L25.2698 108.589ZM21.3335 119.555L19.4865 118.788C18.7564 120.545 17.9811 122.293 17.1614 124.029L18.97 124.883L20.7787 125.737C21.6249 123.944 22.4258 122.139 23.1804 120.323L21.3335 119.555ZM16.3624 130.096L14.5943 129.161C13.7049 130.843 12.7733 132.514 11.8004 134.175L13.526 135.186L15.2516 136.197C16.2535 134.487 17.2133 132.765 18.1304 131.031L16.3624 130.096ZM10.4748 140.151L8.79287 139.069C7.7625 140.67 6.69323 142.261 5.58569 143.84L7.22309 144.988L8.8605 146.137C9.99809 144.515 11.0971 142.88 12.1567 141.233L10.4748 140.151ZM3.56989 0.760864C2.88553 -0.10616 1.62789 -0.254242 0.760864 0.430114C-0.106159 1.11447 -0.254242 2.37211 0.430115 3.23914L2 2L3.56989 0.760864ZM2 152L23.3758 143.259L5.11788 129.117L2 152ZM2 2L0.430115 3.23914C1.02651 3.99472 1.61397 4.75318 2.19243 5.51445L3.78487 4.30443L5.37731 3.09441C4.78387 2.31343 4.18137 1.53556 3.56989 0.760864L2 2ZM7.2231 9.01155L5.58569 10.16C6.69324 11.7391 7.76251 13.3295 8.79287 14.9309L10.4748 13.8488L12.1567 12.7666C11.0971 11.1197 9.9981 9.48507 8.86051 7.86312L7.2231 9.01155ZM13.526 18.8141L11.8004 19.8251C12.7733 21.4856 13.7049 23.1572 14.5943 24.8392L16.3624 23.9043L18.1304 22.9694C17.2133 21.2351 16.2535 19.5129 15.2516 17.803L13.526 18.8141ZM18.97 29.117L17.1614 29.9706C17.9811 31.7074 18.7564 33.4546 19.4865 35.212L21.3335 34.4446L23.1804 33.6773C22.4258 31.8609 21.6249 30.0561 20.7787 28.2633L18.97 29.117ZM23.4379 39.8789L21.5556 40.5551C22.2031 42.3574 22.8034 44.1698 23.3558 45.9916L25.2698 45.4113L27.1837 44.8309C26.6116 42.9439 25.9901 41.0677 25.3201 39.2027L23.4379 39.8789ZM26.8165 51.0303L24.875 51.5108C25.3338 53.3645 25.7432 55.2276 26.1024 57.0994L28.0666 56.7224L30.0307 56.3453C29.658 54.4036 29.2335 52.4716 28.7579 50.5499L26.8165 51.0303ZM29.0112 62.473L27.0296 62.7439C27.2876 64.6307 27.4948 66.5259 27.6504 68.4292L29.6437 68.2662L31.6371 68.1032C31.4755 66.1275 31.2605 64.1603 30.9928 62.2022L29.0112 62.473ZM29.9604 74.0856L27.9612 74.1399C27.987 75.0914 28 76.0448 28 77H30H32C32 76.0086 31.9865 75.019 31.9597 74.0313L29.9604 74.0856ZM30 77H28C28 77.9552 27.987 78.9086 27.9612 79.8601L29.9604 79.9144L31.9597 79.9687C31.9865 78.981 32 77.9915 32 77H30ZM29.6437 85.7338L27.6504 85.5708C27.4948 87.4741 27.2876 89.3693 27.0296 91.2561L29.0112 91.527L30.9928 91.7979C31.2605 89.8397 31.4755 87.8725 31.6371 85.8968L29.6437 85.7338ZM28.0666 97.2776L26.1024 96.9006C25.7432 98.7724 25.3338 100.635 24.875 102.489L26.8165 102.97L28.7579 103.45C29.2335 101.528 29.658 99.5964 30.0307 97.6547L28.0666 97.2776ZM25.2698 108.589L23.3558 108.008C22.8034 109.83 22.2031 111.643 21.5556 113.445L23.4379 114.121L25.3201 114.797C25.9901 112.932 26.6116 111.056 27.1837 109.169L25.2698 108.589ZM21.3335 119.555L19.4865 118.788C18.7564 120.545 17.9811 122.293 17.1614 124.029L18.97 124.883L20.7787 125.737C21.6249 123.944 22.4258 122.139 23.1804 120.323L21.3335 119.555ZM16.3624 130.096L14.5943 129.161C13.7049 130.843 12.7733 132.514 11.8004 134.175L13.526 135.186L15.2516 136.197C16.2535 134.487 17.2133 132.765 18.1304 131.031L16.3624 130.096ZM10.4748 140.151L8.79287 139.069C7.7625 140.67 6.69323 142.261 5.58569 143.84L7.22309 144.988L8.8605 146.137C9.99809 144.515 11.0971 142.88 12.1567 141.233L10.4748 140.151Z" fill="#4B4E6D"/>
</svg>
