<svg width="19" height="19" viewBox="0 0 19 19" fill="none" xmlns="http://www.w3.org/2000/svg">
<path d="M7.41968 9.91135C7.77756 10.3898 8.23415 10.7857 8.75847 11.0721C9.2828 11.3586 9.8626 11.5289 10.4586 11.5716C11.0545 11.6143 11.6527 11.5283 12.2125 11.3195C12.7723 11.1107 13.2806 10.7839 13.703 10.3613L16.203 7.86135C16.962 7.07551 17.382 6.023 17.3725 4.93051C17.363 3.83802 16.9248 2.79297 16.1523 2.02044C15.3797 1.2479 14.3347 0.8097 13.2422 0.800206C12.1497 0.790713 11.0972 1.21069 10.3113 1.96968L8.87801 3.39468M10.753 8.24468C10.3951 7.76624 9.93855 7.37036 9.41422 7.0839C8.8899 6.79743 8.31009 6.62708 7.71414 6.5844C7.11819 6.54172 6.52003 6.62771 5.96023 6.83653C5.40043 7.04535 4.89209 7.37212 4.46968 7.79468L1.96968 10.2947C1.21069 11.0805 0.790713 12.133 0.800206 13.2255C0.8097 14.318 1.2479 15.3631 2.02044 16.1356C2.79297 16.9081 3.83802 17.3463 4.93051 17.3558C6.023 17.3653 7.07551 16.9453 7.86135 16.1863L9.28635 14.7613" stroke="#FBFBFB" stroke-width="1.6" stroke-linecap="round" stroke-linejoin="round"/>
</svg>
