<svg width="12" height="13" viewBox="0 0 12 13" fill="none" xmlns="http://www.w3.org/2000/svg">
<path d="M8.5 0.5V3.16667M3.16667 0.5V3.16667M0.5 5.83333H11.1667M0.5 3.16667C0.5 2.81304 0.640476 2.47391 0.890524 2.22386C1.14057 1.97381 1.47971 1.83333 1.83333 1.83333H9.83333C10.187 1.83333 10.5261 1.97381 10.7761 2.22386C11.0262 2.47391 11.1667 2.81304 11.1667 3.16667V11.1667C11.1667 11.5203 11.0262 11.8594 10.7761 12.1095C10.5261 12.3595 10.187 12.5 9.83333 12.5H1.83333C1.47971 12.5 1.14057 12.3595 0.890524 12.1095C0.640476 11.8594 0.5 11.5203 0.5 11.1667V3.16667ZM3.16667 8.5H4.5V9.83333H3.16667V8.5Z" stroke="#828282" stroke-linecap="round" stroke-linejoin="round"/>
</svg>
