<svg width="16" height="16" viewBox="0 0 16 16" fill="none" xmlns="http://www.w3.org/2000/svg">
<path d="M8 5.14251V3.42822" stroke="#4B4E6D" stroke-width="1.5" stroke-linecap="round" stroke-linejoin="round"/>
<path d="M6.28571 9.71401C6.28571 10.5711 7.05142 10.8569 7.99999 10.8569C8.94856 10.8569 9.71428 10.8569 9.71428 9.71401C9.71428 7.99972 6.28571 7.99972 6.28571 6.28544C6.28571 5.14258 7.05142 5.14258 7.99999 5.14258C8.94856 5.14258 9.71428 5.57686 9.71428 6.28544" stroke="#4B4E6D" stroke-width="1.5" stroke-linecap="round" stroke-linejoin="round"/>
<path d="M8 10.8569V12.5712" stroke="#4B4E6D" stroke-width="1.5" stroke-linecap="round" stroke-linejoin="round"/>
<path d="M7.99998 15.4284C12.1027 15.4284 15.4286 12.1025 15.4286 7.99986C15.4286 3.89717 12.1027 0.571289 7.99998 0.571289C3.8973 0.571289 0.571411 3.89717 0.571411 7.99986C0.571411 12.1025 3.8973 15.4284 7.99998 15.4284Z" stroke="#4B4E6D" stroke-width="1.5" stroke-linecap="round" stroke-linejoin="round"/>
</svg>
