<svg width="24" height="24" viewBox="0 0 24 24" fill="none" xmlns="http://www.w3.org/2000/svg">
<path d="M15.4286 12.8571C19.6891 12.8571 23.1429 11.3221 23.1429 9.42857C23.1429 7.53502 19.6891 6 15.4286 6C11.1682 6 7.71436 7.53502 7.71436 9.42857C7.71436 11.3221 11.1682 12.8571 15.4286 12.8571Z" stroke="#4B4E6D" stroke-width="2" stroke-linecap="round" stroke-linejoin="round"/>
<path d="M7.71436 9.42847V19.7142C7.71436 21.5999 11.1429 23.1428 15.4286 23.1428C19.7144 23.1428 23.1429 21.5999 23.1429 19.7142V9.42847" stroke="#4B4E6D" stroke-width="2" stroke-linecap="round" stroke-linejoin="round"/>
<path d="M23.1429 14.5715C23.1429 16.4572 19.7144 18.0001 15.4286 18.0001C11.1429 18.0001 7.71436 16.4572 7.71436 14.5715" stroke="#4B4E6D" stroke-width="2" stroke-linecap="round" stroke-linejoin="round"/>
<path d="M15.2572 2.57137C13.254 1.33516 10.9223 0.737285 8.57146 0.857086C4.30289 0.857086 0.857178 2.39994 0.857178 4.28566C0.857178 5.29709 1.85146 6.20566 3.42861 6.85709" stroke="#4B4E6D" stroke-width="2" stroke-linecap="round" stroke-linejoin="round"/>
<path d="M3.42861 17.1428C1.85146 16.4914 0.857178 15.5828 0.857178 14.5714V4.28564" stroke="#4B4E6D" stroke-width="2" stroke-linecap="round" stroke-linejoin="round"/>
<path d="M3.42861 11.9999C1.85146 11.3485 0.857178 10.4399 0.857178 9.42847" stroke="#4B4E6D" stroke-width="2" stroke-linecap="round" stroke-linejoin="round"/>
</svg>
