<svg width="16" height="16" viewBox="0 0 16 16" fill="none" xmlns="http://www.w3.org/2000/svg">
<path d="M5.71427 0.571289H1.14284C0.827248 0.571289 0.571411 0.827126 0.571411 1.14272V5.71415C0.571411 6.02974 0.827248 6.28557 1.14284 6.28557H5.71427C6.02986 6.28557 6.2857 6.02974 6.2857 5.71415V1.14272C6.2857 0.827126 6.02986 0.571289 5.71427 0.571289Z" stroke="#4B4E6D" stroke-width="1.5" stroke-linecap="round" stroke-linejoin="round"/>
<path d="M14.8572 0.571289H10.2857C9.97013 0.571289 9.71429 0.827126 9.71429 1.14272V5.71415C9.71429 6.02974 9.97013 6.28557 10.2857 6.28557H14.8572C15.1727 6.28557 15.4286 6.02974 15.4286 5.71415V1.14272C15.4286 0.827126 15.1727 0.571289 14.8572 0.571289Z" stroke="#4B4E6D" stroke-width="1.5" stroke-linecap="round" stroke-linejoin="round"/>
<path d="M5.71427 9.71436H1.14284C0.827248 9.71436 0.571411 9.97019 0.571411 10.2858V14.8572C0.571411 15.1728 0.827248 15.4286 1.14284 15.4286H5.71427C6.02986 15.4286 6.2857 15.1728 6.2857 14.8572V10.2858C6.2857 9.97019 6.02986 9.71436 5.71427 9.71436Z" stroke="#4B4E6D" stroke-width="1.5" stroke-linecap="round" stroke-linejoin="round"/>
<path d="M14.8572 9.71436H10.2857C9.97013 9.71436 9.71429 9.97019 9.71429 10.2858V14.8572C9.71429 15.1728 9.97013 15.4286 10.2857 15.4286H14.8572C15.1727 15.4286 15.4286 15.1728 15.4286 14.8572V10.2858C15.4286 9.97019 15.1727 9.71436 14.8572 9.71436Z" stroke="#4B4E6D" stroke-width="1.5" stroke-linecap="round" stroke-linejoin="round"/>
</svg>
