<svg width="10" height="12" viewBox="0 0 10 12" fill="none" xmlns="http://www.w3.org/2000/svg">
<path d="M4.54134 11L4.34438 11.4596C4.47016 11.5135 4.61253 11.5135 4.7383 11.4596L4.54134 11ZM4.54134 11L4.7383 10.5404C3.98616 10.2181 3.17798 9.4603 2.49499 8.44709C1.8177 7.44232 1.30089 6.24091 1.09596 5.09917C0.889502 3.94893 1.01023 2.93057 1.50684 2.21468C1.98751 1.52175 2.90029 1 4.54133 1V0.5V0C2.68235 0 1.40763 0.603248 0.685178 1.6447C-0.0213418 2.66318 -0.119363 3.98857 0.111686 5.27583C0.34426 6.57159 0.921202 7.90143 1.66579 9.00604C2.40469 10.1022 3.34651 11.0319 4.34438 11.4596L4.54134 11ZM4.54133 0.5V1C6.18236 1 7.09514 1.52175 7.57582 2.21468C8.07243 2.93057 8.19316 3.94893 7.9867 5.09917C7.78178 6.24091 7.26496 7.44232 6.58767 8.44709C5.90469 9.46031 5.09651 10.2181 4.34438 10.5404L4.54134 11L4.7383 11.4596C5.73617 11.0319 6.67799 10.1022 7.41688 9.00603C8.16146 7.90143 8.7384 6.57159 8.97097 5.27583C9.20202 3.98857 9.104 2.66318 8.39748 1.6447C7.67503 0.603248 6.4003 0 4.54133 0V0.5ZM4.54134 2.5V2C3.90566 2 3.39216 2.24335 3.04263 2.63657C2.70129 3.02058 2.54134 3.51847 2.54134 4C2.54134 4.48154 2.70129 4.97942 3.04264 5.36343C3.39217 5.75665 3.90566 6 4.54134 6V5.5V5C4.17702 5 3.94052 4.86835 3.79005 4.69907C3.63139 4.52058 3.54134 4.26846 3.54134 4C3.54134 3.73153 3.63139 3.47942 3.79004 3.30093C3.94052 3.13165 4.17702 3 4.54134 3V2.5ZM4.54134 5.5V6C5.17702 6 5.69052 5.75665 6.04004 5.36343C6.38139 4.97942 6.54134 4.48154 6.54134 4C6.54134 3.51847 6.3814 3.02058 6.04005 2.63657C5.69052 2.24335 5.17702 2 4.54134 2V2.5V3C4.90567 3 5.14217 3.13165 5.29264 3.30093C5.45129 3.47942 5.54134 3.73153 5.54134 4C5.54134 4.26846 5.45129 4.52058 5.29263 4.69907C5.14216 4.86835 4.90566 5 4.54134 5V5.5Z" fill="#828282"/>
</svg>
