<svg width="150" height="144" viewBox="0 0 150 144" fill="none" xmlns="http://www.w3.org/2000/svg">
<rect width="150" height="143.305" rx="71.6527" fill="#84DCC6"/>
<path d="M113.571 113.305H110.357C106.947 113.305 103.677 111.951 101.266 109.54C98.8546 107.128 97.5 103.858 97.5 100.448C97.5 103.858 96.1454 107.128 93.7342 109.54C91.323 111.951 88.0528 113.305 84.6429 113.305C81.2329 113.305 77.9627 111.951 75.5515 109.54C73.1403 107.128 71.7857 103.858 71.7857 100.448C71.7857 103.858 70.4311 107.128 68.0199 109.54C65.6088 111.951 62.3385 113.305 58.9286 113.305C55.5186 113.305 52.2484 111.951 49.8372 109.54C47.426 107.128 46.0714 103.858 46.0714 100.448C46.0714 103.858 44.7168 107.128 42.3057 109.54C39.8945 111.951 36.6242 113.305 33.2143 113.305H30" stroke="white" stroke-width="6" stroke-linecap="round" stroke-linejoin="round"/>
<path d="M91.0714 87.5911C87.7605 83.5658 83.5992 80.3238 78.8864 78.098C74.1736 75.8722 69.0263 74.7178 63.8143 74.7178C58.6023 74.7178 53.455 75.8722 48.7422 78.098C44.0293 80.3238 39.868 83.5658 36.5571 87.5911" stroke="white" stroke-width="6" stroke-linecap="round" stroke-linejoin="round"/>
<path d="M68.5714 75.0554C68.9571 60.5269 73.3928 47.284 83.0357 42.5269" stroke="white" stroke-width="6" stroke-linecap="round" stroke-linejoin="round"/>
<path d="M63.8143 30.3125C67.9815 29.492 72.3047 30.3014 75.8929 32.5738C79.481 34.8463 82.0606 38.4087 83.1 42.5268" stroke="white" stroke-width="6" stroke-linecap="round" stroke-linejoin="round"/>
<path d="M106.564 44.9054C103.605 41.7105 99.5821 39.7059 95.2497 39.2679C90.9173 38.8299 86.574 39.9888 83.0357 42.5268" stroke="white" stroke-width="6" stroke-linecap="round" stroke-linejoin="round"/>
<path d="M59.4429 49.4053C61.9619 45.6941 65.6957 42.977 70.0018 41.7216C74.3079 40.4661 78.9169 40.7508 83.0357 42.5267C87.1671 43.5371 90.7441 46.1137 93.0112 49.7123C95.2783 53.3109 96.0581 57.6497 95.1857 61.8124" stroke="white" stroke-width="6" stroke-linecap="round" stroke-linejoin="round"/>
</svg>
